<?xml version="1.0" encoding="utf-8"?>
<svg xmlns="http://www.w3.org/2000/svg" viewBox="0 0 600 342.64">
  <defs>
    <style>.cls-1{fill:#f492a1;}.cls-2{fill:#e06e84;}.cls-3{fill:#eceded;}.cls-4{fill:#fff;}.cls-5{fill:#d8d8d8;}.cls-6{fill:#f4f4f4;}.cls-7{fill:#f2d897;}.cls-8{fill:#e5c377;}</style>
  </defs>
  <g id="implant_process" data-name="implant process">
    <path class="cls-1" d="M595.17,118.33C588,91.84,250.67,104.09,34.79,106.66c-14.62.17-23.17,7.39-27.88,17.94-11,24.82-.67,67.88,2.27,79.75,6.52,26.61-10.27,44.55,16,63.23,59,41.93,211.38,48.82,354.69,39.48,142.09-9.26,165.3-34.83,195.42-52.73S588.74,208.5,591,192.85c.94-6.77,2.37-13.78,3.7-21C597.72,154.9,600.23,136.84,595.17,118.33Z"/>
    <path class="cls-2" d="M595.17,118.33C588,91.84,250.67,104.09,34.79,106.66c-14.62.17-23.17,7.39-27.88,17.94.07.45.1.7.1.7-2.69,7-4.45,61.09,9.3,65s21.14-10.43,31,5.55S87,214.17,110.35,208.23c60.25-15.38,53,16.13,89,17.89,26.8,1.31,42.29-19.37,67.14-20.57s32.27,25.36,59.62,18.81c41.47-10,55.34-3.11,90.82,0,65.91,5.77,75.56-25.33,103.76-22.8s51.3-4.89,64.39-16.93a40.39,40.39,0,0,0,9.6-12.83C597.72,154.9,600.23,136.84,595.17,118.33Z"/>
    <path class="cls-3" d="M494.56,49.22a25,25,0,0,1,16-10.88,144,144,0,0,1,38.74-3.08c25.44,1.67,31,15.87,29,57.94s-1.92,83-34.3,84.82-53.82-46.18-57.83-84.67C483.89,71.41,489.4,57.3,494.56,49.22Z"/>
    <path class="cls-4" d="M553.46,172.76c-15.91,5-30.76-4.63-45.34-31.25s-6.33-22.66-7.7-48.2-1.78-48.89,18.82-51c33.69-3.46,45.89-4.4,52.61,13.52s1.1,70.51-2.08,89.79S553.46,172.76,553.46,172.76Z"/>
    <path class="cls-5" d="M400.8,52.11c3.95-6.54,11.28-11.31,20.05-13.1a169.8,169.8,0,0,1,38.67-3.47c26.91.88,37.26,17.41,36.23,56.86s-6.28,93.45-40.59,93.52c-46.57.09-55.66-47.64-60.84-83.58C391.62,83.54,396,60,400.8,52.11Z"/>
    <path class="cls-4" d="M463.7,181.65c-19,4.93-46.4-6.24-55.71-36.61s-4.83-79.74,1.38-90.14S443,33.59,469.91,40.36s20.65,56.11,18.28,78.06C486,139.08,484.55,176.26,463.7,181.65Z"/>
    <path class="cls-6" d="M473,158c-10.43-.3-33.7,8.53-40.37-7.76s-3.07-78.44-8.74-78-7.7,81.73,3.67,88.68C446.44,172.5,473,158,473,158Z"/>
    <path class="cls-3" d="M106.22,49.22a25,25,0,0,0-16-10.88,144,144,0,0,0-38.74-3.08c-25.45,1.67-31,15.87-29,57.94s1.92,83,34.3,84.82,53.82-46.18,57.82-84.67C116.89,71.41,111.38,57.3,106.22,49.22Z"/>
    <path class="cls-4" d="M47.32,172.76c15.91,5,30.76-4.63,45.33-31.25s6.34-22.66,7.71-48.2,1.78-48.89-18.82-51c-33.7-3.46-45.9-4.4-52.61,13.52s-1.1,70.51,2.08,89.79S47.32,172.76,47.32,172.76Z"/>
    <path class="cls-5" d="M200,52.11C196,45.57,188.7,40.8,179.93,39a169.89,169.89,0,0,0-38.68-3.47C114.35,36.42,104,53,105,92.4s6.28,93.45,40.58,93.52c46.58.09,55.67-47.64,60.84-83.58C209.16,83.54,204.78,60,200,52.11Z"/>
    <path class="cls-4" d="M137.08,181.65c19,4.93,46.4-6.24,55.71-36.61s4.83-79.74-1.38-90.14-33.66-21.31-60.54-14.54-20.65,56.11-18.29,78.06C114.81,139.08,116.23,176.26,137.08,181.65Z"/>
    <path class="cls-6" d="M127.83,158c10.43-.3,33.7,8.53,40.36-7.76s3.07-78.44,8.75-78,7.69,81.73-3.68,88.68C154.34,172.5,127.83,158,127.83,158Z"/>
    <path class="cls-7" d="M392.72,49.87c-6.33-23.54-76.8-20.83-87.59-9.52S286.67,187.9,347.26,188.82C402.94,189.66,406.79,102.21,392.72,49.87Z"/>
    <path class="cls-4" d="M389.42,55.29c-5.72-24.87-79.63-22.76-82.86-9.43s-10.19,83.87,7.16,112.32,31.22,27.84,40,24.94c13-4.26,32.19-12.73,38.79-44C399.07,108.29,393.44,72.72,389.42,55.29Z"/>
    <path class="cls-6" d="M378.36,72.35c-4.13,14.17,2.48,60.2-10,77.78-16.88,23.85-37.38,1.41-40.77,8s37.1,20.46,51.67-4.85S378.36,72.35,378.36,72.35Z"/>
    <path class="cls-8" d="M349.64,35.31s-16.25,21.53-13.26,32.5-9.83,18.68-7.69,26.4,9.4,19.5,9.4,19.5-9-23.16-1.28-26.41,4.28-15.84,8.12-15.84-5.56-11.37,0-16.65S349.64,35.31,349.64,35.31Z"/>
    <path class="cls-7" d="M206,49.94c6.32-23.55,24.76,33.82,85.67,3.61C305.88,46.49,312,188,251.42,188.89,195.74,189.73,191.89,102.28,206,49.94Z"/>
    <path class="cls-4" d="M209.26,55.35C215,30.49,226.64,90.5,286.57,61c12.79-6.29,15.75,68.8-1.61,97.26s-31.22,27.84-40,24.94c-13-4.26-32.19-12.73-38.79-44C199.61,108.35,205.25,72.79,209.26,55.35Z"/>
    <path class="cls-6" d="M220.32,72.42c4.14,14.17-2.48,60.2,10,77.78,16.87,23.85,37.38,1.41,40.76,8s-37.1,20.46-51.67-4.85S220.32,72.42,220.32,72.42Z"/>
  </g>
</svg>