<svg fill="#fff" width="70pt" height="70pt" version="1.1" viewBox="0 0 100 100" xmlns="http://www.w3.org/2000/svg"><path d="m76.586 37.477c-0.089844-0.027343-0.18359-0.050781-0.28125-0.0625l-10.328-1.5898 1.5586-5.4531c0.25391-0.89453-0.14062-1.8477-0.95312-2.2969l-8.4492-4.6914 1.3555-4.9648s0.085938-0.42969 0.0625-0.71094c-0.039062-0.44922-0.23828-0.92188-0.61719-1.2812-0.30859-0.29297-0.76953-0.61719-1.5742-0.54297-0.011719 0-0.023437 0-0.039063 0.003907-2.5234 0.23828-4.9141 1.2812-6.8125 2.9883l-6.75 6.0781-6.75-6.0781c-2.1836-1.9648-5.0195-3.0508-7.9609-3.043-2.0859 0.003907-4.7344 0.011719-7.1641 0.023438-5.2305 0.011719-9.8359 3.4609-11.324 8.4844-0.85938 2.8672-1.5664 6.1562-1.5664 9.0781 0 7.0117 2.3867 14.926 4.5586 20.09 3.957 9.4062 3.4648 21.457 4.8203 29.586 1.1172 6.7031 3.6602 10.91 9.0234 10.91 5.4141 0 8.1484-3.2695 9.6719-7.957 0.96094-2.9492 1.4141-6.5039 1.9336-9.9141 0.46484-3.0508 0.96094-5.9805 2.1094-8.0938 0.43359-0.79687 1.5625-1.3086 2.6445-1.3047h0.011719c1.082-0.003906 2.2109 0.50781 2.6445 1.3047 1.1484 2.1133 1.6445 5.0469 2.1094 8.0938 0.51953 3.4102 0.97266 6.9648 1.9336 9.9141 1.5234 4.6875 4.2578 7.957 9.6719 7.957 5.3594 0 7.9023-4.207 9.0195-10.91 1.3594-8.1289 0.86719-20.184 4.8203-29.586 1.5117-3.5898 3.1328-8.5156 3.9727-13.535l0.0625-0.42578c0.039062-0.51562-0.12109-1.0039-0.42188-1.3867 0.57422 0.17578 1.2188 0.089844 1.7422-0.28516 1.7461-1.2422 3.4023-2.5938 4.8594-4.0391 2.0781-2.0547 3.918-4.8672 5.3633-7.4922 2.5273-4.5898 1.7422-10.293-1.9297-14.027-1.7031-1.7305-3.5586-3.6172-5.0195-5.1055-0.25391-0.25781-0.51562-0.5-0.78906-0.73047-0.63672-0.53906-1.5469-0.625-2.2734-0.21484l-5.8672 3.3047c-0.80469 0.45313-1.1914 1.3945-0.94531 2.2812l2.5938 9.2891-5.5742 3.0547c-0.50391 0.27734-0.86328 0.75391-0.98828 1.3164-0.125 0.55859-0.003906 1.1484 0.33203 1.6133 0 0 7.4922 10.344 7.5078 10.363z" fill-rule="evenodd"></path></svg>