<svg fill="#fff" width="70pt" height="70pt" version="1.1" viewBox="0 0 100 100" xmlns="http://www.w3.org/2000/svg"><path d="m55.711 7.8789c0.51172-0.35938 1.0625-0.77344 1.6641-1.2422 0.26953-0.20703 0.26953-0.20703 0.53906-0.41797 4.457-3.4648 6.9727-4.8398 10.914-5.1133 5.4844-0.375 15.152 5.2344 17.23 10.949 2.25 6.1875 2.9883 16.344 0.058594 26.434-1.5039 5.1758-2.5625 8.2031-3.6758 10.469-0.60547 1.2344-1.2383 2.2695-2.0352 3.3789-0.51953 0.71875-2.8047 3.6133-3.4492 4.4766-0.85938 1.1406-1.0859 4.5039-0.94531 13.176 0.042969 2.6328 0.058593 3.9492 0.050781 5.5117-0.039062 12.105-1.6406 19.117-7.1172 22.598-1.3242 0.84375-2.832 0.61328-3.9297-0.26172-0.54297-0.43359-0.95312-0.98047-1.3477-1.6758-0.52344-0.92188-1.0586-2.1914-1.7109-3.9883-0.52344-1.4414-3.1211-9.25-3.9102-11.453-1.6367-4.5703-3.1094-7.9922-4.5938-10.469-1.4805-2.4688-2.7422-3.582-3.4531-3.582s-1.9766 1.1133-3.4609 3.5859c-1.4883 2.4727-2.9648 5.8984-4.6016 10.465-0.80078 2.2383-3.4023 10.035-3.9102 11.438-0.64844 1.7969-1.1797 3.0625-1.6992 3.9844-0.39062 0.69141-0.79688 1.2344-1.3281 1.668-1.0898 0.88672-2.5938 1.1406-3.9297 0.30078-5.5195-3.4648-7.1289-10.484-7.1562-22.625-0.003906-1.5586 0.015626-2.8789 0.058594-5.5039 0.14844-8.6719-0.074218-12.027-0.92969-13.168-0.37891-0.50781-1.6719-2.2109-1.9414-2.5742-0.6875-0.91797-1.1914-1.6133-1.6562-2.3047-1.0156-1.5117-1.8125-2.9492-2.5742-4.6992-0.9375-2.1445-1.8516-4.8242-2.9883-8.7461-2.6289-9.0547-1.9375-20.984 0.0625-26.441 2.1172-5.7695 11.863-11.344 17.414-10.898 3.8984 0.31641 6.4023 1.6914 10.766 5.0859 0.30859 0.24219 0.46875 0.36328 0.61328 0.47656 3.3047 2.5664 5.0039 3.4336 7.2617 3.4336h0.078125l10.531 12.828-9.7617 9.7617c-1.0508 1.0508-1.1367 2.7305-0.19141 3.8828l12.125 14.82c0.50781 0.62109 1.4141 0.71484 2.0508 0.19531l2.2227-1.8164c0.625-0.51172 0.72656-1.4219 0.21875-2.043l-10.469-12.797 9.7383-9.7383c1.043-1.043 1.1367-2.707 0.21484-3.8594z" fill-rule="evenodd"></path></svg>