<svg fill="#fff" width="100pt" height="100pt" version="1.1" viewBox="0 0 100 100" xmlns="http://www.w3.org/2000/svg"><path d="m21.344 41.738c-0.38281 4.7383-0.43359 9.0547-0.24609 12.984l5.8828-3.7188c0.43359-0.27344 0.97656-0.32031 1.4492-0.11719 0.47266 0.20312 0.81641 0.62109 0.91797 1.125l1.0117 4.957 4.6016-4.0352c0.64453-0.57031 1.6328-0.50391 2.2031 0.14453 0.57031 0.64844 0.50391 1.6367-0.14453 2.2031l-6.625 5.8125c-0.28906 0.25391-0.65625 0.38672-1.0312 0.38672-0.16797 0-0.33594-0.027344-0.5-0.082031-0.52734-0.17969-0.92188-0.625-1.0312-1.168l-1.0938-5.375-5.3945 3.4102c1.2227 13.293 5.5078 21.238 10.012 23.32 2.7969 1.293 4.9844-0.03125 6.3242-1.3711 1.1367-1.1367 1.8125-2.9805 2.4688-4.7656 0.52344-1.4336 1.0703-2.9141 1.8828-4.1445 1.7812-2.6914 4.7617-4.3008 7.9688-4.3008s6.1875 1.6094 7.9766 4.3125c0.8125 1.2266 1.3555 2.707 1.8828 4.1406 0.65625 1.7812 1.332 3.6289 2.4688 4.7656 1.3398 1.3359 3.5273 2.6602 6.3242 1.3711 3.4727-1.6055 6.8203-6.6875 8.7344-15.027l-4.1367 0.48828c-0.0625 0.007812-0.12109 0.011718-0.18359 0.011718-0.57422 0-1.1094-0.31641-1.3828-0.83203l-1.125-2.1211-5.4492 1.2852c-0.83594 0.20312-1.6797-0.32031-1.8789-1.1602-0.19531-0.83984 0.32031-1.6797 1.1641-1.8789l6.625-1.5625c0.69141-0.16016 1.4062 0.16016 1.7383 0.78906l1.1875 2.2422 4.0703-0.48047c0.99219-5.8828 1.332-13.094 0.64453-21.602-0.023437-0.30469 0.042969-0.61328 0.19141-0.87891 1.2422-2.25 1.8711-4.6016 1.8711-6.9961 0-8.0391-6.5391-14.578-14.578-14.578-6.0352 0-11.352 3.6523-13.555 9.3047-0.22266 0.57031-0.75391 0.95703-1.3633 0.99219-0.8125 0.046875-1.6367 0.046875-2.4492 0-0.60938-0.035156-1.1406-0.42188-1.3633-0.99219-2.2031-5.6523-7.5195-9.3047-13.555-9.3047-8.0391 0-14.578 6.5391-14.578 14.578 0 2.3945 0.62891 4.7461 1.8711 6.9961 0.14844 0.26172 0.21484 0.56641 0.19141 0.87109zm36.027-3.7422 9.4219-4.7812c0.76562-0.39453 1.7109-0.082032 2.1016 0.6875 0.39062 0.76953 0.082031 1.7109-0.6875 2.1016l-6.1875 3.1406 6.0078 2.1523c0.8125 0.28906 1.2344 1.1875 0.94531 2-0.23047 0.63672-0.82812 1.0352-1.4727 1.0352-0.17578 0-0.35156-0.03125-0.52734-0.09375l-9.4219-3.375c-0.58594-0.21094-0.99219-0.75-1.0312-1.3711-0.039062-0.625 0.29688-1.2109 0.85156-1.4961zm-9.4062 11.871c0.46484-0.30859 1.0664-0.34375 1.5625-0.09375 0.5 0.25 0.82812 0.75391 0.85938 1.3125l0.14453 2.6875 3.375-2.3906c0.70312-0.5 1.6797-0.33203 2.1758 0.37109 0.5 0.70312 0.33594 1.6797-0.37109 2.1797l-5.6875 4.0312c-0.26953 0.19141-0.58594 0.28906-0.90234 0.28906-0.23047 0-0.46484-0.050781-0.67969-0.15625-0.51172-0.24609-0.84766-0.75391-0.87891-1.3242l-0.14844-2.7891-3.082 2.0391c-0.72266 0.47656-1.6875 0.27734-2.1641-0.44141-0.47656-0.71875-0.27734-1.6875 0.44141-2.1641zm-16.172-13.863c-0.76953-0.39062-1.0781-1.332-0.6875-2.1016 0.38672-0.76953 1.332-1.0781 2.1016-0.6875l9.4219 4.7812c0.55859 0.28125 0.89453 0.86719 0.85156 1.4922-0.039063 0.62109-0.44531 1.1602-1.0312 1.3711l-9.4219 3.375c-0.17578 0.0625-0.35156 0.09375-0.52734 0.09375-0.64062 0-1.2422-0.39844-1.4727-1.0352-0.29297-0.8125 0.13281-1.707 0.94531-2l6.0078-2.1523z"></path></svg>