<svg fill="#fff" width="70pt" height="70pt" version="1.1" viewBox="0 0 100 100" xmlns="http://www.w3.org/2000/svg"><path d="m20.168 54.668v3.668c0 18.668 6.668 33.332 15 33.332h1c3.668-0.5 6.332-4.168 6-8-0.16797-1.668-0.33203-3.5-0.33203-5.332 0-12.832 4.332-21.668 8.332-21.668s8.332 8.832 8.332 21.668c0 1.832 0 3.5-0.33203 5.332-0.5 3.832 2.332 7.5 6 8h1c8.332 0 15-14.668 15-33.332v-3.668c-0.16797-4.668 1-9.332 3.5-13.332 2.168-3.5 3.332-7.332 3.332-11.5v-1.668c-0.83203-10.332-9.168-18.832-19.332-19.832-3.668-0.33203-7.332 0.16797-10.668 1.668-4.168 1.832-8.832 1.832-13 0-3.332-1.5-7-2-10.668-1.668-10.832 1.1641-19.164 9.6641-20 19.996-0.33203 4.668 0.83203 9.168 3.332 13.168 2.5039 3.832 3.668 8.5 3.5039 13.168zm38.664-31.836c-0.66797-0.66797-0.66797-1.668 0-2.332 0.66797-0.66797 1.668-0.66797 2.332 0l3.832 3.832 3.832-3.832c0.66797-0.66797 1.668-0.66797 2.332 0 0.66797 0.66797 0.66797 1.668 0 2.332l-3.8281 3.8359 3.832 3.832c0.66797 0.66797 0.66797 1.668 0 2.332-0.33203 0.33594-0.66406 0.5-1.1641 0.5s-0.83203-0.16797-1.168-0.5l-3.832-3.832-3.832 3.832c-0.33594 0.33594-0.66797 0.5-1.168 0.5s-0.83203-0.16797-1.168-0.5c-0.66797-0.66797-0.66797-1.668 0-2.332l3.832-3.832z"></path></svg>