<svg fill="#fff" width="100pt" height="100pt" version="1.1" viewBox="0 0 100 100" xmlns="http://www.w3.org/2000/svg"><path d="m61.758 52.137c0 0.58984-0.48047 1.0703-1.0703 1.0703s-1.0703-0.48047-1.0703-1.0703c0-0.58984 0.48047-1.0703 1.0703-1.0703s1.0703 0.48047 1.0703 1.0703zm11.758-5.3438c-0.58984 0-1.0703 0.48047-1.0703 1.0703 0 0.58984 0.48047 1.0703 1.0703 1.0703s1.0703-0.48047 1.0703-1.0703c0-0.58984-0.48047-1.0703-1.0703-1.0703zm9.582 14.652c-2.3125 0.28906-4.7734 0.42969-7.3945 0.31641-4.8555-0.23047-9.6289-1.2656-14.18-3.082-3.2227-1.2812-5.543-4.1016-6.0625-7.3594-0.10938-0.69141-0.11719-1.1797-0.11719-1.4648 0.058594-4.0469 3.6328-7.3398 7.9688-7.3398h3.7891c5.3047 0 9.6211-4.3164 9.6211-9.6211 0-4.125 3.3594-7.4844 7.4844-7.4844h2.4492c2.2266 9.1602 1.043 21.719-3.5586 36.035zm-19.207-9.3086c0-1.7695-1.4375-3.207-3.207-3.207-1.7695 0-3.207 1.4375-3.207 3.207s1.4375 3.207 3.207 3.207c1.7695 0 3.207-1.4375 3.207-3.207zm12.828 4.2773c0-1.7695-1.4375-3.207-3.207-3.207s-3.207 1.4375-3.207 3.207c0 1.7695 1.4375 3.207 3.207 3.207s3.207-1.4375 3.207-3.207zm0-8.5508c0-1.7695-1.4375-3.207-3.207-3.207s-3.207 1.4375-3.207 3.207 1.4375 3.207 3.207 3.207 3.207-1.4375 3.207-3.207zm8.5508-8.5508c0-1.7695-1.4375-3.207-3.207-3.207s-3.207 1.4375-3.207 3.207 1.4375 3.207 3.207 3.207 3.207-1.4375 3.207-3.207zm-11.758 16.035c-0.58984 0-1.0703 0.48047-1.0703 1.0703 0 0.58984 0.48047 1.0703 1.0703 1.0703 0.58984 0 1.0703-0.48047 1.0703-1.0703 0-0.58984-0.48047-1.0703-1.0703-1.0703zm8.5508-17.105c-0.58984 0-1.0703 0.48047-1.0703 1.0703s0.48047 1.0703 1.0703 1.0703 1.0703-0.48047 1.0703-1.0703-0.48047-1.0703-1.0703-1.0703zm-62.004 14.965c-1.5742 0-3.4805-0.11719-5.5938-0.45703-3.0742-13.074-2.9609-24.184 0.34766-31.836 0.16797 1.6055 0.44531 3.2109 0.88281 4.7734 1.3633 4.8711 5.8438 8.2734 10.898 8.2734h0.34375c5.0469 0 9.1562 4.1055 9.1562 9.1562 0 4.0859-2.6641 7.6875-6.4727 8.7617-3.1172 0.87891-6.332 1.3242-9.5625 1.3242zm3.207-5.3438c0 1.7695 1.4375 3.207 3.207 3.207 1.7695 0 3.207-1.4375 3.207-3.207s-1.4375-3.207-3.207-3.207c-1.7695 0-3.207 1.4375-3.207 3.207zm-5.3438-5.3438c1.7695 0 3.207-1.4375 3.207-3.207s-1.4375-3.207-3.207-3.207-3.207 1.4375-3.207 3.207 1.4375 3.207 3.207 3.207zm0-4.2773c-0.58984 0-1.0703 0.48047-1.0703 1.0703s0.48047 1.0703 1.0703 1.0703 1.0703-0.48047 1.0703-1.0703-0.48047-1.0703-1.0703-1.0703zm8.5508 10.691c0.58984 0 1.0703-0.48047 1.0703-1.0703 0-0.58984-0.48047-1.0703-1.0703-1.0703s-1.0703 0.48047-1.0703 1.0703c0 0.58984 0.48047 1.0703 1.0703 1.0703zm51.281 15.016c1.6172 0 3.1172-0.15234 4.6133-0.30469-2.4648 7.2188-5.75 14.832-9.9141 22.668-0.11328 0.45703-0.55078 1.9609-2.0195 3.1094-0.97656 0.76172-2.1992 1.207-3.5039 1.207-2.4531 0-4.6289-1.5703-5.4023-3.8945l-5.957-17.867c-0.77344-2.3242-2.9531-3.8945-5.4023-3.8945h-0.34375c-2.4531 0-4.6289 1.5703-5.4023 3.8945l-5.957 17.867c-0.77344 2.3242-2.9531 3.8945-5.4023 3.8945-2.6133 0-4.8906-1.7773-5.5273-4.3125-5.8711-11.051-10.012-21.668-12.508-31.32 1.8789 0.25391 3.5938 0.35547 5.0352 0.35547 3.4258 0 6.8398-0.47266 10.145-1.4062 4.7266-1.332 8.0312-5.7812 8.0312-10.82 0-6.2266-5.0664-11.293-11.293-11.293h-0.34375c-4.0977 0-7.7344-2.7617-8.8398-6.7148-0.46875-1.6797-0.77344-3.4062-0.90234-5.1289-0.070313-0.90234-0.082031-1.7773-0.0625-2.6289 0.95312-1.3984 2.0156-2.6719 3.2695-3.7031 2.4141-1.9844 6.2148-3.9453 12.43-4.2578 2.2656-0.11328 4.5703 0.27344 6.6836 1.1016 6.7891 2.6641 11 3.1133 14.969 2.1211l10.07-2.5156c2.1953-0.55078 4.5078-0.71094 6.7422-0.32812 4.2266 0.72656 7.043 2.2969 8.9727 3.8828 2.7969 2.2969 4.8008 5.5938 6.1016 9.6211h-1.8281c-5.3047 0-9.6211 4.3164-9.6211 9.6211 0 4.125-3.3594 7.4844-7.4844 7.4844h-3.7891c-5.4961 0-10.031 4.2383-10.109 9.6211 0 0.17969 0.007813 0.78906 0.14453 1.6562 0.64062 3.9961 3.4688 7.4492 7.3828 9.0078 4.7734 1.9023 9.7773 2.9883 14.871 3.2266 0.73047 0.035156 1.4453 0.050781 2.1523 0.050781zm-5.6406-45.246c0.42969-0.40625 0.44531-1.082 0.039063-1.5117-0.41016-0.42969-1.0859-0.44141-1.5117-0.039062-7.8242 7.4531-17.043 8.2578-20.645 8.2578-10.809 0-18.039-5.7773-20.645-8.2578-0.42578-0.40234-1.1016-0.38672-1.5117 0.039062-0.40625 0.42969-0.39062 1.1055 0.039062 1.5117 2.793 2.6602 10.539 8.8477 22.117 8.8477 3.8555 0 13.734-0.86328 22.117-8.8477z"></path></svg>