<svg fill="#fff" width="100pt" height="100pt" version="1.1" viewBox="0 0 100 100" xmlns="http://www.w3.org/2000/svg"><path d="m94.324 21.977c-1.207-3.4648-3.8828-5.875-7.9531-7.1602-5.7695-1.8281-10.852-1.582-15.098 0.72656-2.3164 1.2578-4.0938 2.9648-5.4375 4.6875-3.5391-4.5547-9.8555-8.7969-20.535-5.4219-4.0703 1.2891-6.7461 3.6992-7.9492 7.1602-1.8438 5.2969 0.089844 12.098 2.4609 17.547-0.54297-0.28516-1.1289-0.53516-1.7734-0.74219-3.8711-1.2266-7.2812-1.0586-10.145 0.5-1.4414 0.78516-2.5742 1.8242-3.4492 2.8945-2.1406-2.5938-6.375-5.6797-13.59-3.3984-2.7617 0.875-4.582 2.5156-5.4023 4.8789-2.2344 6.3945 3.7148 16.008 4.8203 17.715-0.38672 3.0977-2.2969 20.227 2.2734 24.34 0.68359 0.61719 1.375 0.82812 2.0391 0.61719 1.6523-0.51562 2.3438-3.4727 3.3008-7.5586 1.2344-5.2617 2.7695-11.809 6.4414-11.809l0.19922 0.007813c3.7031 0 5.2383 6.5469 6.4727 11.809 0.95703 4.0859 1.6523 7.0391 3.3008 7.5586 0.16797 0.054687 0.33594 0.078125 0.50391 0.078125 0.50391 0 1.0195-0.23047 1.5352-0.69531 4.5703-4.1133 2.6602-21.246 2.2734-24.34 0.90625-1.3984 5.0547-8.0938 5.3047-13.984 0.35547 0.58203 0.63672 1.0195 0.80469 1.2773-0.41406 3.3203-3.582 30.59 3.3047 36.785 0.92969 0.83594 1.8438 1.1211 2.707 0.85156 2.2852-0.71484 3.3164-5.1094 4.7422-11.191 1.9102-8.1367 4.2812-18.262 10.199-18.262l0.28906 0.011719c5.9453 0 8.3203 10.121 10.227 18.258 1.4258 6.082 2.457 10.477 4.7422 11.191 0.21094 0.066406 0.42578 0.097656 0.64062 0.097656 0.66797 0 1.3633-0.31641 2.0664-0.94922 6.8789-6.1953 3.7148-33.461 3.3008-36.785 1.4297-2.1758 10.766-16.977 7.3828-26.695z"></path></svg>