<?xml version="1.0" encoding="utf-8"?>
<svg xmlns="http://www.w3.org/2000/svg" viewBox="0 0 600 342.64">
  <defs>
    <style>.cls-1{fill:#f492a1;}.cls-2{fill:#e06e84;}.cls-3{fill:#eceded;}.cls-4{fill:#fff;}.cls-5{fill:#d8d8d8;}.cls-6{fill:#f4f4f4;}</style>
  </defs>
  <g id="implant_process" data-name="implant process">
    <path class="cls-1" d="M596.1,113.31C588.9,85.86,251,98.55,34.71,101.22c-14.65.17-23.22,7.66-27.94,18.59-11,25.73-.66,70.36,2.28,82.66,6.54,27.59-10.28,46.18,16,65.54,59.1,43.46,211.76,50.61,355.34,40.93,142.34-9.6,165.6-36.11,195.77-54.66s13.5-47.5,15.74-63.73c.94-7,2.37-14.28,3.7-21.81C598.66,151.22,601.17,132.5,596.1,113.31Z"/>
    <path class="cls-2" d="M596.1,113.31C588.9,85.86,251,98.55,34.71,101.22c-14.65.17-23.22,7.66-27.94,18.59l.11.73c-2.69,7.23-4.46,63.32,9.31,67.37s21.18-10.81,31,5.75,39.82,19,63.17,12.83c60.36-15.94,53,16.72,89.17,18.55,26.85,1.36,42.37-20.08,67.26-21.33s32.33,26.3,59.72,19.5c41.55-10.3,55.45-3.22,91,0,66,6,75.69-26.25,103.94-23.62S572.89,194.51,586,182a41.76,41.76,0,0,0,9.61-13.29C598.66,151.22,601.17,132.5,596.1,113.31Z"/>
    <path class="cls-3" d="M103.15,47.93A24.84,24.84,0,0,0,87.35,36.6,135.29,135.29,0,0,0,49,33.4C23.83,35.13,18.33,49.93,20.27,93.75s1.9,86.41,34,88.37S107.48,134,111.44,93.91C113.7,71.05,108.25,56.35,103.15,47.93Z"/>
    <path class="cls-4" d="M44.85,176.64c15.74,5.16,30.45-4.82,44.87-32.56s6.27-23.6,7.62-50.21,1.77-50.93-18.62-53.14c-33.35-3.6-45.42-4.58-52.07,14.09s-1.08,73.46,2.06,93.55S44.85,176.64,44.85,176.64Z"/>
    <ellipse class="cls-4" cx="470.32" cy="84.88" rx="2.91" ry="3.43" transform="translate(-7.5 94.43) rotate(-11.38)"/>
    <path class="cls-3" d="M503.81,49.85a25,25,0,0,1,15.87-11.39,136.12,136.12,0,0,1,38.52-3.21C583.5,37,589,51.86,587.08,95.89S585.16,182.7,553,184.67,499.46,136.33,495.47,96C493.2,73.08,498.68,58.31,503.81,49.85Z"/>
    <path class="cls-4" d="M562.38,179.17c-15.82,5.18-30.59-4.85-45.08-32.72S511,122.74,509.64,96s-1.77-51.17,18.71-53.38C561.85,39,574,38,580.66,56.77s1.09,73.81-2.07,94S562.38,179.17,562.38,179.17Z"/>
    <path class="cls-5" d="M400.58,52.88C404.51,46,411.8,41,420.52,39.17A160.25,160.25,0,0,1,459,35.54c26.76.92,37,18.22,36,59.51s-6.24,97.81-40.35,97.88c-46.31.1-55.35-49.86-60.49-87.48C391.46,85.78,395.81,61.18,400.58,52.88Z"/>
    <path class="cls-4" d="M473.13,188.47c-18.94,5.15-46.14-6.54-55.4-38.32s-4.8-83.47,1.37-94.35,33.47-22.3,60.2-15.22,20.54,58.73,18.18,81.71C495.26,143.9,493.86,182.82,473.13,188.47Z"/>
    <path class="cls-5" d="M189.82,51.42c-3.93-6.85-11.22-11.84-19.94-13.71a161.28,161.28,0,0,0-38.45-3.63c-26.76.92-37.05,18.22-36,59.51s6.24,97.81,40.35,97.88c46.31.1,55.35-49.85,60.49-87.47C198.94,84.32,194.59,59.73,189.82,51.42Z"/>
    <path class="cls-4" d="M127.27,187c18.94,5.15,46.14-6.53,55.4-38.32s4.8-83.46-1.37-94.35S147.83,32,121.1,39.13s-20.54,58.72-18.18,81.7C105.14,142.45,106.54,181.36,127.27,187Z"/>
    <path class="cls-6" d="M118.07,162.24c10.38-.32,33.52,8.93,40.14-8.13s3-82.1,8.7-81.62,7.65,85.53-3.66,92.82C144.44,177.43,118.07,162.24,118.07,162.24Z"/>
    <path class="cls-6" d="M472.33,163.69c-10.38-.31-33.52,8.93-40.14-8.12s-3.05-82.1-8.7-81.63-7.65,85.54,3.66,92.82C446,178.89,472.33,163.69,472.33,163.69Z"/>
    <path class="cls-3" d="M199.64,50.28c6-24.31,73.13-21.5,83.42-9.83s17.57,152.33-40.13,153.28C189.91,194.6,186.24,104.32,199.64,50.28Z"/>
    <path class="cls-4" d="M202.78,55.87c5.45-25.67,75.84-23.49,78.91-9.73s9.71,86.58-6.82,116-29.73,28.74-38.13,25.75c-12.38-4.4-30.66-13.15-36.94-45.41C193.59,110.59,199,73.87,202.78,55.87Z"/>
    <path class="cls-6" d="M213.31,73.49c3.94,14.63-2.36,62.15,9.49,80.3,16.07,24.62,35.6,1.45,38.82,8.25s-35.33,21.12-49.2-5S213.31,73.49,213.31,73.49Z"/>
    <path class="cls-3" d="M399.33,50.87C393,26.23,323,29.08,312.24,40.91s-18.35,154.43,41.9,155.39C409.49,197.18,413.32,105.66,399.33,50.87Z"/>
    <path class="cls-4" d="M396.06,56.54c-5.7-26-79.18-23.82-82.39-9.86s-10.14,87.77,7.12,117.56,31,29.13,39.81,26.1c12.93-4.46,32-13.32,38.57-46C405.65,112,400.05,74.79,396.06,56.54Z"/>
    <path class="cls-6" d="M385.06,74.4c-4.11,14.84,2.46,63-9.91,81.41-16.78,25-37.17,1.47-40.53,8.36s36.89,21.42,51.37-5.07S385.06,74.4,385.06,74.4Z"/>
  </g>
</svg>