<svg fill="#fff" width="70pt" height="70pt" version="1.1" viewBox="0 0 100 100" xmlns="http://www.w3.org/2000/svg"><path d="m96.383 40.191c-0.11719 4.3086-1.793 9.1602-3.5586 14.293-2.0703 5.2812-3.4844 10.789-4.2227 16.414 0.019532 2.1406-1.5781 3.9531-3.7031 4.2031-0.16016 0.015626-0.30859 0.03125-0.46875 0.03125h-0.003907c-2.4805-0.13281-4.5938-1.8398-5.25-4.2344-0.21875-0.96094-0.33984-1.9414-0.36719-2.9297-0.32422-4.4102-0.86719-8.3828-3.8086-8.3828s-3.4844 3.9688-3.8086 8.3828c-0.027344 0.98828-0.14844 1.9688-0.36719 2.9297-0.65625 2.3945-2.7695 4.1016-5.25 4.2344-0.16016 0-0.30859-0.015624-0.46875-0.03125h-0.003907c-2.125-0.25-3.7227-2.0625-3.7031-4.2031-0.73828-5.625-2.1523-11.133-4.2227-16.414-0.75-2.207-1.4844-4.3398-2.1016-6.4258v31.352c0 0.8125-0.66016 1.4727-1.4727 1.4727s-1.4688-0.66016-1.4688-1.4727v-59.352c0-0.8125 0.65625-1.4688 1.4688-1.4688s1.4727 0.65625 1.4727 1.4688v13.441c0.46094-0.87891 1.043-1.6836 1.7344-2.3984 2.4102-2.3594 5.6562-3.6719 9.0312-3.6445 2.082 0 4.125 0.57031 5.9102 1.6445 1.9492 1.375 4.5508 1.375 6.5 0 1.7852-1.0742 3.8281-1.6445 5.9102-1.6445 3.375-0.027343 6.6211 1.2852 9.0312 3.6445 2.2617 2.4648 3.418 5.75 3.1914 9.0898zm-49.984-21.602c-0.39063-0.003906-0.76563 0.15234-1.043 0.42578-0.27734 0.27734-0.42969 0.65234-0.42969 1.043v13.441c-0.46094-0.87891-1.043-1.6836-1.7344-2.3984-2.4102-2.3594-5.6562-3.6719-9.0312-3.6445-2.082 0-4.125 0.57031-5.9102 1.6445-0.97266 0.62891-2.0938 0.98438-3.25 1.0312-1.1562-0.046874-2.2773-0.40234-3.25-1.0312-1.7852-1.0742-3.8281-1.6445-5.9102-1.6445-3.375-0.027343-6.6211 1.2852-9.0312 3.6445-2.2617 2.4648-3.418 5.75-3.1914 9.0898 0.11719 4.3086 1.793 9.1602 3.5586 14.293 2.0703 5.2812 3.4844 10.789 4.2227 16.414-0.019532 2.1406 1.5781 3.9531 3.7031 4.2031 0.16016 0.015626 0.30859 0.03125 0.46875 0.03125h0.003907c2.4805-0.13281 4.5938-1.8398 5.25-4.2344 0.21875-0.96094 0.33984-1.9414 0.36719-2.9297 0.32422-4.4102 0.86719-8.3828 3.8086-8.3828s3.4844 3.9688 3.8086 8.3828c0.027344 0.98828 0.14844 1.9688 0.36719 2.9297 0.65625 2.3945 2.7695 4.1016 5.25 4.2344 0.16016 0 0.30859-0.015624 0.46875-0.03125h0.003907c2.125-0.25 3.7227-2.0625 3.7031-4.2031 0.73828-5.625 2.1523-11.133 4.2227-16.414 0.75-2.207 1.4844-4.3398 2.1016-6.4258v31.352c0 0.8125 0.66016 1.4727 1.4727 1.4727s1.4688-0.66016 1.4688-1.4727v-59.352c0-0.8125-0.66016-1.4688-1.4688-1.4688z"></path></svg>