<?xml version="1.0" encoding="utf-8"?>
<svg xmlns="http://www.w3.org/2000/svg" viewBox="0 0 600 342.64">
  <defs>
    <style>.cls-1{fill:#f492a1;}.cls-2{fill:#e06e84;}.cls-3{fill:#eceded;}.cls-4{fill:#fff;}.cls-5{fill:#d8d8d8;}.cls-6{fill:#f4f4f4;}</style>
  </defs>
  <g id="implant_process" data-name="implant process">
    <path class="cls-1" d="M597.09,113c-7.24-27.58-346.74-14.83-564-12.15-14.72.17-23.33,7.7-28.07,18.68-11.1,25.85-.67,70.68,2.28,83.05C13.85,230.33-3,249,23.37,268.46c59.37,43.67,212.75,50.85,357,41.12,143-9.64,166.38-36.27,196.7-54.91s13.56-47.73,15.8-64c1-7,2.39-14.35,3.73-21.92C599.65,151.13,602.18,132.32,597.09,113Z"/>
    <path class="cls-2" d="M597.09,113c-7.24-27.58-346.74-14.83-564-12.15-14.72.17-23.33,7.7-28.07,18.68.07.47.1.73.1.73C2.4,127.57.62,183.92,14.46,188s21.28-10.87,31.19,5.78,40,19.08,63.46,12.89c60.64-16,53.3,16.8,89.58,18.63,27,1.36,42.57-20.17,67.59-21.42s32.47,26.41,60,19.59c41.74-10.36,55.7-3.24,91.42,0,66.33,6,76-26.38,104.43-23.74s51.63-5.1,64.81-17.64a42,42,0,0,0,9.66-13.36C599.65,151.13,602.18,132.32,597.09,113Z"/>
    <path class="cls-3" d="M489.67,45.69a25.14,25.14,0,0,1,15.87-9.77,157.92,157.92,0,0,1,38.53-2.76c25.3,1.5,30.81,14.25,28.87,52s-1.91,74.49-34.11,76.18-53.51-41.47-57.49-76C479.07,65.62,484.54,52.94,489.67,45.69Z"/>
    <path class="cls-4" d="M548.24,156.64c-15.82,4.44-30.59-4.16-45.08-28.07s-6.3-20.35-7.66-43.28-1.77-43.91,18.72-45.8c33.5-3.11,45.63-4,52.31,12.13s1.09,63.33-2.07,80.64A35.83,35.83,0,0,1,548.24,156.64Z"/>
    <path class="cls-5" d="M396.45,48.28c3.93-5.87,11.22-10.15,19.94-11.76a187,187,0,0,1,38.45-3.11c26.76.79,37.05,15.63,36,51.06s-6.24,83.92-40.36,84c-46.3.08-55.34-42.78-60.49-75C387.32,76.51,391.68,55.41,396.45,48.28Z"/>
    <path class="cls-4" d="M459,164.62C440.06,169,412.86,159,403.6,131.74s-4.8-71.61,1.37-81,33.47-19.13,60.2-13,20.53,50.38,18.18,70.1C481.13,126.38,479.72,159.77,459,164.62Z"/>
    <path class="cls-6" d="M468.19,143.36c-10.37-.26-33.51,7.67-40.14-7S425,66,419.36,66.36,411.71,139.75,423,146C441.83,156.4,468.19,143.36,468.19,143.36Z"/>
    <path class="cls-3" d="M103.55,45.69a25.14,25.14,0,0,0-15.87-9.77,157.88,157.88,0,0,0-38.52-2.76c-25.3,1.5-30.82,14.25-28.88,52s1.91,74.49,34.12,76.18,53.5-41.47,57.49-76C114.16,65.62,108.68,52.94,103.55,45.69Z"/>
    <path class="cls-4" d="M45,156.64c15.82,4.44,30.59-4.16,45.08-28.07s6.3-20.35,7.66-43.28S99.49,41.38,79,39.49c-33.5-3.11-45.63-4-52.31,12.13S25.61,115,28.77,132.26A35.8,35.8,0,0,0,45,156.64Z"/>
    <path class="cls-5" d="M196.78,48.28c-3.94-5.87-11.22-10.15-19.94-11.76a187,187,0,0,0-38.45-3.11c-26.76.79-37,15.63-36,51.06s6.24,83.92,40.35,84c46.31.08,55.35-42.78,60.49-75C205.9,76.51,201.55,55.41,196.78,48.28Z"/>
    <path class="cls-4" d="M134.23,164.62c18.94,4.42,46.14-5.61,55.4-32.88s4.8-71.61-1.37-81-33.47-19.13-60.2-13-20.54,50.38-18.18,70.1C112.1,126.38,113.5,159.77,134.23,164.62Z"/>
    <path class="cls-6" d="M125,143.36c10.38-.26,33.52,7.67,40.14-7s3.05-70.44,8.7-70,7.65,73.39-3.66,79.64C151.4,156.4,125,143.36,125,143.36Z"/>
    <path class="cls-3" d="M204.51,46.05c6-20.85,73.13-18.44,83.41-8.43s17.58,130.7-40.13,131.51C194.77,169.88,191.11,92.42,204.51,46.05Z"/>
    <path class="cls-4" d="M207.65,50.85c5.45-22,75.83-20.15,78.9-8.34s9.71,74.28-6.81,99.49S250,166.65,241.6,164.09c-12.38-3.78-30.65-11.28-36.94-39C198.46,97.8,203.82,66.3,207.65,50.85Z"/>
    <path class="cls-6" d="M218.18,66c3.94,12.55-2.36,53.32,9.49,68.9,16.07,21.12,35.6,1.24,38.82,7.07s-35.33,18.12-49.21-4.29S218.18,66,218.18,66Z"/>
    <path class="cls-3" d="M389.42,47.05c-6.29-21.14-76.36-18.7-87.09-8.55S284,171,344.23,171.83C399.59,172.59,403.41,94.06,389.42,47.05Z"/>
    <path class="cls-4" d="M386.15,51.92c-5.69-22.33-79.18-20.44-82.39-8.46s-10.14,75.31,7.12,100.86,31,25,39.81,22.4c12.93-3.83,32-11.44,38.57-39.5C395.74,99.51,390.14,67.58,386.15,51.92Z"/>
    <path class="cls-6" d="M375.15,67.24C371,80,377.61,121.3,365.24,137.09c-16.78,21.42-37.17,1.26-40.53,7.17s36.89,18.38,51.37-4.35S375.15,67.24,375.15,67.24Z"/>
  </g>
</svg>