<svg fill="#fff" width="70pt" height="70pt" version="1.1" viewBox="0 0 100 100" xmlns="http://www.w3.org/2000/svg"><g><path d="m12.738 66.324c-0.48047-3.3633 0.8125-5.4258-1.168-7.7812-3.0312-3.6562-4.168-4.3945-5.3945-7.1992-2.7812 1.5195-5.1328 3.8633-5.1328 6.9883v15.25h7.2891c0.57812 0 1.043 0.46875 1.043 1.043s-0.46484 1.043-1.043 1.043h-7.2891v2.082h17.707c-3.2656-3-5.3906-7.0391-6.0117-11.426z"></path><path d="m24.512 77.75h12.832c1.668-0.003906 3.293-0.54688 4.625-1.5508 0.16797-0.125 0.15625-0.050781-0.0625-0.082031v-0.003907c-1.0547-0.09375-2.0156-0.62891-2.6562-1.4727-0.64062-0.83984-0.89844-1.9141-0.70703-2.9531 0.19922-1.082 0.21484-2.1914 0.050781-3.2812-0.33203-2.3555-3.125-5.293-7.543-8.082-0.66406-0.45703-1.5742-0.32812-2.082 0.30078-3.4883 3.918-5.3008 7.5195-4.957 9.8633 0.17188 1.0938 0.52344 2.1484 1.0391 3.125 0.69141 1.3594 0.47266 3-0.53906 4.1367z"></path><path d="m92.887 51.793c-2.082 2.2305-2.832 2.082-5.6133 4.4805-2.3555 2.0312-1.4062 4.168-2.5742 7.5195-1.5273 4.4062-4.6055 8.1094-8.6562 10.414-0.9375 0.50391-2.0391 0.59766-3.043 0.25-1.1367-0.39844-2.0156-1.3164-2.3594-2.4727-0.33984-1.1562-0.10547-2.4062 0.62891-3.3594 0.67188-0.87891 1.1992-1.8594 1.5625-2.9062 0.78125-2.2383-0.30078-6.1133-2.9883-10.637-0.37109-0.72266-1.2461-1.0312-1.9883-0.69531-4.8945 1.8867-8.1562 4.2383-8.9375 6.4883-0.37109 1.0508-0.57031 2.1562-0.58594 3.2695-0.023437 1.7773-1.293 3.293-3.0352 3.6289-1.7422 0.33984-3.4844-0.59375-4.1719-2.2305-2.1289-5.1719-1.832-11.023 0.8125-15.949h-2.9805c-0.72266 1.207-1.3477 2.4727-1.8633 3.7812-1.1445 2.8633 0.65625 4.3242 1.1758 7.8555 0.66406 4.5586-0.33203 9.2031-2.8008 13.094 4.6211-1.6562 9.7812-0.49609 13.25 2.9766 0.27734 0.28125 0.64844 0.44141 1.043 0.44922h39.195v-15.75c-0.14453-4.2188-2.4336-8.0703-6.0703-10.207z"></path><path d="m13.168 57.199c1.1875 1.418 1.7695 3.2461 1.625 5.0938-0.12109 1.2422-0.12109 2.4961 0 3.7383 0.57422 4.1211 2.6406 7.8906 5.8008 10.594 0.61328 0.53516 1.5234 0.54688 2.1523 0.03125s0.79297-1.4102 0.39062-2.1133c-0.58984-1.168-0.98828-2.418-1.1797-3.7109-0.57422-3.9883 3.0312-8.8125 5.4688-11.551 1.1875-1.3867 3.2148-1.6758 4.7422-0.67578 3.125 1.9375 7.9258 5.5508 8.5 9.543v-0.003907c0.19531 1.2969 0.17969 2.6172-0.042969 3.9062-0.17188 0.78125 0.23438 1.5742 0.96875 1.8867 0.73828 0.3125 1.5898 0.054688 2.0312-0.61328 2.2734-3.4844 3.1914-7.6797 2.582-11.793-0.24219-1.2852-0.60938-2.5469-1.1016-3.7617-0.64453-1.6797-0.62109-3.543 0.0625-5.207 0.58594-1.4766 1.2812-2.9062 2.082-4.2812 3.2383-6.75-0.1875-15.625-10.051-17.168-2.3281-0.32422-4.6953 0.19922-6.668 1.4688-2.5039 1.5898-5.5469 2.0859-8.4258 1.375-2.0273-0.54688-4.1641-0.54688-6.1875 0-4.0742 1.0898-7.2812 4.2305-8.4531 8.2812-1.1719 4.0469-0.14062 8.418 2.7227 11.512 0.78125 0.85547 1.9258 2.1875 2.9805 3.4492zm6.8633-19.426v-0.003907c0.070312-0.26562 0.24219-0.49609 0.48047-0.63672 0.23828-0.14062 0.52344-0.17969 0.78906-0.11328 3.6992 0.92188 7.6133 0.30078 10.844-1.7188 0.23438-0.19531 0.54688-0.28125 0.84766-0.22656 0.30078 0.050781 0.56641 0.23438 0.72266 0.49609 0.15234 0.26563 0.18359 0.58594 0.082031 0.875-0.097656 0.28906-0.32422 0.51953-0.60938 0.62891-3.7227 2.3359-8.2383 3.0469-12.5 1.9688-0.51953-0.18359-0.80859-0.74219-0.65625-1.2734z"></path><path d="m52.781 52.676c-1.3594 3.9375-1.2344 8.2344 0.34375 12.086 0.17969 0.42578 0.53906 0.75781 0.98047 0.90625 0.49609 0.15234 1.0391 0.0625 1.4609-0.24219 0.42188-0.30469 0.67578-0.78906 0.68359-1.3125 0.023438-1.332 0.25391-2.6523 0.6875-3.9141 1.332-3.8008 6.7383-6.4375 10.168-7.7383v-0.003907c1.6875-0.69531 3.6289-0.019531 4.5195 1.5742 1.875 3.125 4.5 8.5742 3.125 12.387-0.42188 1.2539-1.0391 2.4375-1.832 3.5-0.45703 0.61719-0.42578 1.4688 0.066406 2.0547 0.49609 0.58984 1.3281 0.76562 2.0156 0.42188 3.6172-2.0508 6.3594-5.3555 7.707-9.2891 0.37891-1.2539 0.625-2.543 0.74219-3.8438 0.20703-1.7734 1.0742-3.4023 2.4258-4.5625 0.85156-0.77344 1.7695-1.4688 2.7383-2.0859 6.8945-4.168 8.5938-14.293 0.0625-20.613-1.9062-1.3672-4.2422-2.0039-6.582-1.793-2.957 0.26562-5.8906-0.67969-8.1367-2.625-3.9648-3.5273-9.7773-4.0391-14.297-1.2578-4.5234 2.7852-6.6875 8.1992-5.3281 13.332 0.29297 1.1133 0.69922 2.8242 1.043 4.4375 0.39844 1.8047 0.078125 3.6992-0.89453 5.2695-0.67188 1.0469-1.2422 2.1562-1.6992 3.3125zm17.625-22.688c0.38281-0.42578 1.0391-0.46484 1.4688-0.082031 2.8633 2.5078 6.625 3.7461 10.418 3.4258 0.57422-0.039062 1.0742 0.39453 1.1133 0.96875 0.039062 0.57812-0.39453 1.0742-0.96875 1.1172-4.3555 0.34766-8.6641-1.082-11.949-3.9609-0.42578-0.38281-0.46484-1.0391-0.082031-1.4688z"></path><path d="m57.219 78.77c-3.7773-3.7578-9.75-4.1562-13.988-0.92578-1.6914 1.293-3.7578 1.9922-5.8867 1.9883h-36.301v5.207l97.914 0.003907v-5.207l-39.176-0.003907c-0.96094-0.003906-1.8828-0.38281-2.5625-1.0625z"></path><path d="m51.043 19.793c0.26953 0.046875 0.55078-0.015625 0.77734-0.17188 0.22656-0.16016 0.38281-0.40234 0.42969-0.67188l0.48828-2.7383v-0.003907c0.10156-0.57422-0.28125-1.1211-0.85938-1.2227-0.57422-0.10156-1.1211 0.28516-1.2227 0.85938l-0.48828 2.7383c-0.050781 0.27734 0.015625 0.5625 0.17969 0.78906 0.16797 0.22656 0.41797 0.37891 0.69531 0.42188z"></path><path d="m45.207 19.512c0.19531 0.53906 0.79297 0.82031 1.3359 0.625 0.53906-0.19531 0.82031-0.79297 0.625-1.3359l-0.94922-2.6133c-0.20703-0.52344-0.79297-0.78906-1.3242-0.59766s-0.8125 0.76953-0.63281 1.3047z"></path><path d="m41.387 22.832c0.44141 0.29688 1.0352 0.20703 1.375-0.20312 0.33984-0.40625 0.31641-1.0078-0.054688-1.3906l-2.082-1.793v0.003907c-0.21094-0.17969-0.48438-0.26562-0.76172-0.24219-0.27344 0.023438-0.52734 0.15625-0.70703 0.36719-0.37109 0.4375-0.31641 1.0977 0.125 1.4688z"></path><path d="m37 27.082c2.9688 0.53125 2.7812 0.5 2.918 0.5 0.57422 0.050781 1.0781-0.375 1.1289-0.95312 0.050781-0.57422-0.37891-1.0781-0.95312-1.1289l-2.7305-0.48828c-0.26953-0.050781-0.55078 0.011719-0.77734 0.17188-0.22656 0.15625-0.38281 0.39844-0.42969 0.67188-0.054688 0.27344 0.003906 0.55859 0.16406 0.79297 0.15625 0.23047 0.40234 0.38672 0.67969 0.43359z"></path><path d="m55.75 21.875c0.30859 0 0.60547-0.13672 0.80078-0.375l1.793-2.082c0.37109-0.44141 0.31641-1.0977-0.125-1.4688-0.44141-0.37109-1.0977-0.31641-1.4688 0.125l-1.793 2.082c-0.26172 0.30859-0.32422 0.74219-0.15234 1.1133 0.16797 0.36719 0.53906 0.60547 0.94531 0.60547z"></path></g></svg>