<svg fill="#fff" width="70pt" height="70pt" version="1.1" viewBox="0 0 100 100" xmlns="http://www.w3.org/2000/svg"><g><path d="m7.0781 42.258c-0.64062-0.37891-1.375-0.58594-2.125-0.58594h-0.050781c-1.75 0.011719-3.3164 1.1523-3.9023 2.8398-0.32422 0.9375-0.57422 1.9062-0.74219 2.8828-0.19922 1.1758-0.28516 2.375-0.25391 3.5664 0.035156 1.2734 0.97656 2.3516 2.2344 2.5664 1.7969 0.30469 3.6484 0.30469 5.4414-0.003906 0.26562-0.046876 0.52344-0.13281 0.76172-0.25391-0.25781-0.38281-0.49609-0.81641-0.71875-1.293-1.1875-2.5547-1.7617-6.4219-0.64453-9.7188z"></path><path d="m13.441 37.977c-1.6875 0.49219-3.1133 1.6328-4.1133 3.2969-1.8516 3.0742-1.3594 7.3477-0.11719 10.012 0.65625 1.4102 1.5352 2.3594 2.293 2.4805 0.21875 0.035156 2.2148 0.15625 5.4883-5.832 0.03125-1.1719 0.10547-2.3438 0.22266-3.5039 0.15234-1.5117 0.38672-3.0352 0.6875-4.5234 0.10938-0.53125 0.28125-1.0352 0.50781-1.5078-1.0938-0.49219-2.9141-1.0195-4.9688-0.42188z"></path><path d="m43.031 41.254c-0.46875-2.9414-2.9805-5.0742-5.9727-5.0742-2.9844 0-5.4922 2.1133-5.9648 5.0273-0.27734 1.7109-0.47656 3.457-0.58984 5.1836-0.085937 1.2969-0.125 2.6133-0.11719 3.9102 0.007812 1.6875 1.0195 3.2188 2.5742 3.9102l4.3125 1.9102c0.55859 0.24609 1.1523 0.37109 1.7617 0.37109 2.2305 0 4.0859-1.668 4.3125-3.8789 0.21094-2.0703 0.27734-4.1719 0.19531-6.2461-0.070313-1.7031-0.24219-3.4258-0.51172-5.1133z"></path><path d="m24.676 36.18c-2.5156 0-4.6914 1.7031-5.168 4.0508-0.29297 1.4375-0.51562 2.9062-0.66406 4.3633-0.15234 1.4961-0.23047 3.0156-0.22656 4.5195 0 2.4102 1.9805 4.4258 4.5039 4.5938 1.0469 0.070313 2.1094 0.066407 3.1562-0.003906 1.0938-0.074219 2.1094-0.5 2.9062-1.2031-0.27734-0.68359-0.42969-1.4219-0.4375-2.1836-0.007813-1.3398 0.03125-2.6953 0.12109-4.0273 0.11719-1.7812 0.32031-3.5781 0.60547-5.3398 0.0625-0.38281 0.15234-0.75391 0.26562-1.1094-0.62891-2.168-2.6758-3.6602-5.0625-3.6602z"></path><path d="m86.801 40.246c-0.47656-2.3086-2.5312-3.9844-4.8789-3.9844-2.6484 0-4.832 2.0664-4.9688 4.7031l-0.097656 1.832c0.15625 1.1836 0.28516 2.375 0.38281 3.5586 0.22266 2.7031 0.29688 5.4492 0.21875 8.1602-0.011719 0.375-0.058593 0.74219-0.14062 1.0938 2.3398 2.7148 5.5039 3.9531 7.8047 3.0273 0.32422-0.13281 0.64453-0.31641 0.94531-0.55078 0.96875-0.74609 1.5781-1.9102 1.6719-3.1875 0.23828-3.1211 0.19531-6.2812-0.125-9.3945-0.18359-1.7539-0.45703-3.5234-0.8125-5.2578z"></path><path d="m99.625 43.543c-0.15234-1.082-0.35547-2.1719-0.60156-3.2383-0.54688-2.3789-2.6523-4.043-5.1211-4.043-2.6992 0-4.9492 2.0195-5.2305 4.6953l-0.023437 0.21094c0.25 1.3828 0.45312 2.7812 0.59375 4.1719 0.30469 2.9492 0.36328 5.9453 0.17969 8.9102 2.2383 0.375 4.5352 0.4375 6.7891 0.17578 2.0977-0.24219 3.6797-1.9453 3.7617-4.0508 0.085938-2.2773-0.03125-4.5781-0.34766-6.832z"></path><path d="m60.586 41.398c-0.76953-3.5547-3.9688-6.1328-7.5977-6.1328-4.2852 0-7.7695 3.4766-7.7695 7.7461v15.391c0 2.0039 1.5078 3.6914 3.5039 3.9258 1.5469 0.18359 3.1172 0.26172 4.6719 0.24219 1.2734-0.015624 2.5586-0.10547 3.8242-0.25781 2.1211-0.25781 3.7969-1.9336 4.0781-4.0703 0.42188-3.2344 0.52344-6.5195 0.29688-9.7695-0.16406-2.3672-0.50391-4.75-1.0078-7.0742z"></path><path d="m74.832 40.359c-0.5-2.9531-3.0391-5.0938-6.0352-5.0938-3.1562 0-5.8359 2.457-6.0977 5.5977l-0.16016 1.9375c0.33203 1.8398 0.56641 3.707 0.69141 5.5664 0.22266 3.2422 0.12891 6.5156-0.26953 9.7422 3.0781 0.53516 6.2461 0.61719 9.3438 0.23438 1.9453-0.23828 3.457-1.9023 3.5117-3.8711 0.074219-2.6523 0.003906-5.3359-0.21484-7.9805-0.16797-2.0469-0.42578-4.1094-0.76953-6.1328z"></path><path d="m44.398 20.625c0.45312 0 0.82031-0.36719 0.82031-0.82031v-9.1484c0-0.45312-0.36719-0.82031-0.82031-0.82031-0.45313 0-0.82031 0.36719-0.82031 0.82031v9.1484c0 0.45312 0.36719 0.82031 0.82031 0.82031z"></path><path d="m44.398 35.266c0.45312 0 0.82031-0.36719 0.82031-0.82031v-9.1484c0-0.45312-0.36719-0.82031-0.82031-0.82031-0.45313 0-0.82031 0.36719-0.82031 0.82031v9.1484c0 0.45313 0.36719 0.82031 0.82031 0.82031z"></path><path d="m44.398 64.734c-0.45313 0-0.82031 0.36719-0.82031 0.82031v9.1484c0 0.45312 0.36719 0.82031 0.82031 0.82031 0.45312 0 0.82031-0.36719 0.82031-0.82031v-9.1484c0-0.45313-0.36719-0.82031-0.82031-0.82031z"></path><path d="m44.398 79.375c-0.45313 0-0.82031 0.36719-0.82031 0.82031v9.1484c0 0.45312 0.36719 0.82031 0.82031 0.82031 0.45312 0 0.82031-0.36719 0.82031-0.82031v-9.1484c0-0.45312-0.36719-0.82031-0.82031-0.82031z"></path></g></svg>