<svg fill="#fff" width="100pt" height="100pt" version="1.1" viewBox="0 0 100 100" xmlns="http://www.w3.org/2000/svg"><path d="m48.531 37.684v-4.6523c0-0.8125 0.65625-1.4688 1.4688-1.4688s1.4688 0.65625 1.4688 1.4688v4.6523c0 0.8125-0.65625 1.4727-1.4688 1.4727s-1.4688-0.66016-1.4688-1.4727zm-9.6289 5.418-0.003906 0.003907c0.27344 0.28516 0.65234 0.44531 1.0469 0.44922 0.39453 0.003906 0.77344-0.15234 1.0508-0.42969 0.27734-0.28125 0.43359-0.66016 0.42969-1.0547-0.003906-0.39453-0.16406-0.76953-0.44922-1.043l-3.2891-3.293c-0.57812-0.55469-1.4922-0.54688-2.0625 0.019531-0.56641 0.56641-0.57422 1.4844-0.015625 2.0625zm21.164 0.42969-0.003906 0.003906c0.39062 0 0.76172-0.15234 1.0391-0.42969l3.2891-3.2891c0.55859-0.57812 0.55078-1.4961-0.015625-2.0625-0.57031-0.56641-1.4844-0.57422-2.0625-0.019531l-3.2891 3.2891v0.003906c-0.42188 0.41797-0.54688 1.0508-0.32031 1.6016 0.22656 0.54688 0.76172 0.90625 1.3594 0.90625zm31.742-15.957-0.007813 0.003906c-1.2734 0.78906-2.7383 1.2227-4.2383 1.2578-0.011719 0-0.023438-0.007813-0.039062-0.007813-1.4883-0.042969-2.9375-0.47656-4.2031-1.2539-1.207-0.75391-2.5977-1.1484-4.0195-1.1484-2.2852-0.027343-4.4883 0.84375-6.1289 2.4336-1.5234 1.6758-2.2812 3.9102-2.0938 6.1719 0.097656 3.4531 1.5352 7.6328 3.0586 12.055v-0.003907c1.9297 4.9805 3.2578 10.172 3.9492 15.465 0.10156 1.1758 0.66016 1.2305 0.83984 1.25 1.0547-0.042969 1.9492-0.78516 2.1875-1.8086 0.125-0.67578 0.19922-1.3594 0.22656-2.0469 0.26562-3.5508 0.75391-10.156 6.2227-10.156 0.011719 0 0.023438 0.007813 0.035156 0.007813 5.4336 0.03125 5.9258 6.6172 6.1875 10.156v0.003906c0.027344 0.67969 0.10156 1.3594 0.22656 2.0312 0.19531 0.70312 0.67578 1.2969 1.3281 1.6328 0.046875 0.023437 0.097656 0.042968 0.14453 0.0625v-37.25h-0.003906c-1.3047 0.0625-2.5703 0.45703-3.6797 1.1484zm-79.406 22.223c0.011718 0 0.023437-0.007813 0.035156-0.007813 5.4688 0 5.957 6.6094 6.2188 10.16h0.003906c0.027344 0.68359 0.10156 1.3633 0.22266 2.0391 0.23438 1.0273 1.1328 1.7695 2.1875 1.8086 0.18359-0.019531 0.73828-0.074219 0.83984-1.25h0.003906c0.69141-5.293 2.0156-10.484 3.9453-15.465 1.5273-4.4219 2.9648-8.5977 3.0625-12.051 0.1875-2.2578-0.57031-4.4961-2.0938-6.1719-1.6406-1.5898-3.8438-2.4648-6.1289-2.4336-1.4219-0.003906-2.8125 0.39453-4.0156 1.1484-1.2695 0.77734-2.7188 1.2109-4.207 1.2539-0.011718 0-0.023437 0.007813-0.039062 0.007813-1.5-0.035157-2.9648-0.46875-4.2383-1.2578-1.1094-0.69141-2.375-1.0859-3.6797-1.1484v37.25c0.046875-0.019532 0.09375-0.039063 0.14453-0.0625h-0.003906c0.65234-0.33594 1.1328-0.92578 1.3281-1.6289 0.125-0.67188 0.19922-1.3516 0.22656-2.0352 0.26172-3.543 0.75391-10.129 6.1875-10.156zm80.707 15.879v6.4258c0 0.39063-0.15625 0.76563-0.42969 1.043-0.27734 0.27344-0.64844 0.42969-1.0391 0.42969h-83.281c-0.8125 0-1.4688-0.66016-1.4688-1.4727v-6.4258c0.91406-0.73047 1.582-1.7266 1.9102-2.8516 0.20312-0.87109 0.32031-1.7578 0.35156-2.6484 0.28125-3.9258 0.75-7.4414 3.2812-7.4414h0.015625c2.5156 0.015625 2.9844 3.5156 3.2812 7.4258h-0.003907c0.03125 0.90234 0.14453 1.7969 0.33984 2.6797 0.60938 2.2188 2.5781 3.7969 4.8828 3.9102 0.13281 0 0.28125-0.015625 0.42578-0.03125 1.9844-0.22656 3.4805-1.9102 3.4688-3.9102 0.41016-3.6172 1.2148-7.1758 2.3984-10.617 4.3984-0.78125 6.6602-1.1484 9.8672 1.5742 3.582 3.0586 8.1953 4.6367 12.898 4.4102 4.6992 0.22656 9.3047-1.3516 12.883-4.4102 3.207-2.7188 5.4688-2.3516 9.8672-1.5742 1.1836 3.4414 1.9883 7 2.3945 10.617-0.007813 2 1.4883 3.6836 3.4727 3.9102 0.14844 0.015625 0.29297 0.03125 0.42578 0.03125 2.3008-0.11328 4.2734-1.6914 4.8828-3.9102 0.19531-0.88281 0.30859-1.7773 0.33984-2.6797 0.29297-3.9102 0.76562-7.4102 3.2812-7.4258h0.015624c2.5312 0 3 3.5156 3.2812 7.4414h-0.007812c0.035156 0.89062 0.15234 1.7773 0.35547 2.6484 0.32422 1.125 0.99219 2.1211 1.9102 2.8516zm-53.219-6.1758c-1.7812-0.84375-3.4375-1.9219-4.9258-3.207-1.25-1.2461-3.0742-1.7109-4.7656-1.2188-0.39062 0.050781-0.74219 0.25-0.98047 0.5625s-0.34375 0.70312-0.28906 1.0938c0.050781 0.38672 0.25781 0.73828 0.57031 0.97266 0.3125 0.23828 0.70703 0.33984 1.0938 0.28125 1.5586-0.21875 1.5898-0.17578 2.457 0.55859 1.6953 1.4531 3.582 2.6719 5.6016 3.6172 0.19141 0.097656 0.40625 0.14844 0.62109 0.14844 0.69141 0 1.2891-0.48047 1.4375-1.1562 0.14844-0.67578-0.19141-1.3633-0.82031-1.6523z"></path></svg>