<?xml version="1.0" encoding="utf-8"?>
<svg xmlns="http://www.w3.org/2000/svg" xmlns:xlink="http://www.w3.org/1999/xlink" viewBox="0 0 600 342.64">
  <defs>
    <style>.cls-1{fill:none;}.cls-2{fill:#f492a1;}.cls-3{fill:#e06e84;}.cls-4{fill:#eceded;}.cls-5{fill:#fff;}.cls-6{fill:#d8d8d8;}.cls-7{fill:#f4f4f4;}.cls-8{fill:#f2d897;}.cls-9{fill:#565656;}.cls-10{clip-path:url(#clip-path);}.cls-11{fill:#919191;}</style>
    <clipPath id="clip-path">
      <rect class="cls-1" x="322.85" y="120.34" width="39.53" height="68.62" rx="5.18"/>
    </clipPath>
  </defs>
  <g id="implant_process" data-name="implant process">
    <path class="cls-2" d="M597.09,113c-7.24-27.58-346.74-14.83-564-12.15-14.72.17-23.33,7.7-28.07,18.68-11.1,25.85-.67,70.68,2.28,83.05C13.85,230.33-3,249,23.37,268.46c59.37,43.67,212.75,50.85,357,41.12,143-9.64,166.38-36.27,196.7-54.91s13.56-47.73,15.8-64c1-7,2.39-14.35,3.73-21.92C599.65,151.13,602.18,132.32,597.09,113Z"/>
    <path class="cls-3" d="M597.09,113c-7.24-27.58-346.74-14.83-564-12.15-14.72.17-23.33,7.7-28.07,18.68.07.47.1.73.1.73C2.4,127.57.62,183.92,14.46,188s21.28-10.87,31.19,5.78,40,19.08,63.46,12.89c60.64-16,53.3,16.8,89.58,18.63,27,1.36,42.57-20.17,67.59-21.42s32.47,26.41,60,19.59c41.74-10.36,55.7-3.24,91.42,0,66.33,6,76-26.38,104.43-23.74s51.63-5.1,64.81-17.64a42,42,0,0,0,9.66-13.36C599.65,151.13,602.18,132.32,597.09,113Z"/>
    <path class="cls-4" d="M495,47.35A25,25,0,0,1,510.82,36a136.12,136.12,0,0,1,38.52-3.21c25.3,1.75,30.82,16.61,28.87,60.64s-1.91,86.82-34.11,88.78-53.5-48.34-57.49-88.63C484.34,70.58,489.82,55.81,495,47.35Z"/>
    <path class="cls-5" d="M553.52,176.67c-15.82,5.18-30.59-4.85-45.08-32.72s-6.3-23.71-7.66-50.45S499,42.33,519.49,40.12c33.5-3.62,45.63-4.6,52.31,14.15s1.09,73.81-2.07,94S553.52,176.67,553.52,176.67Z"/>
    <path class="cls-6" d="M401.72,50.38c3.93-6.85,11.22-11.84,19.94-13.71A160.25,160.25,0,0,1,460.11,33c26.76.92,37.05,18.22,36,59.51s-6.24,97.81-40.35,97.88c-46.31.1-55.35-49.86-60.49-87.47C392.59,83.28,397,58.69,401.72,50.38Z"/>
    <path class="cls-5" d="M464.27,186c-18.94,5.15-46.14-6.53-55.4-38.32s-4.8-83.47,1.37-94.35,33.47-22.3,60.2-15.22S491,96.81,488.62,119.79C486.4,141.4,485,180.32,464.27,186Z"/>
    <path class="cls-7" d="M473.47,161.19c-10.38-.31-33.52,8.93-40.14-8.12s-3.05-82.1-8.7-81.63S417,157,428.29,164.26C447.1,176.39,473.47,161.19,473.47,161.19Z"/>
    <path class="cls-4" d="M102.83,47.35A25,25,0,0,0,87,36a136.16,136.16,0,0,0-38.53-3.21C23.13,34.5,17.61,49.36,19.56,93.39s1.91,86.82,34.11,88.78,53.51-48.34,57.49-88.63C113.43,70.58,108,55.81,102.83,47.35Z"/>
    <path class="cls-5" d="M44.26,176.67c15.82,5.18,30.59-4.85,45.08-32.72S95.64,120.24,97,93.5s1.77-51.17-18.72-53.38C44.78,36.5,32.65,35.52,26,54.27s-1.09,73.81,2.07,94S44.26,176.67,44.26,176.67Z"/>
    <path class="cls-6" d="M196.05,50.38c-3.93-6.85-11.22-11.84-19.94-13.71A160.25,160.25,0,0,0,137.66,33c-26.76.92-37,18.22-36,59.51s6.24,97.81,40.35,97.88c46.31.1,55.35-49.86,60.5-87.47C205.18,83.28,200.82,58.69,196.05,50.38Z"/>
    <path class="cls-5" d="M133.51,186c18.93,5.15,46.13-6.53,55.39-38.32s4.8-83.47-1.37-94.35S154.06,31,127.33,38.08s-20.53,58.73-18.18,81.71C111.37,141.4,112.78,180.32,133.51,186Z"/>
    <path class="cls-7" d="M124.31,161.19c10.37-.31,33.51,8.93,40.13-8.12s3.06-82.1,8.7-81.63,7.65,85.54-3.65,92.82C150.67,176.39,124.31,161.19,124.31,161.19Z"/>
    <path class="cls-8" d="M204.66,77.78c6.33-23.54,42.8,5.07,81.91,5.07,15.89,0,25.6,110.48-35,111.4C195.9,195.09,190.59,130.12,204.66,77.78Z"/>
    <path class="cls-5" d="M208,83.2c5.72-24.87,33.64,7.09,73.54,7.09,14.25,0,21,44.86,3.62,73.32s-31.22,27.84-40,24.94c-13-4.26-32.19-12.73-38.79-44C199.77,113.72,203.94,100.63,208,83.2Z"/>
    <path class="cls-7" d="M217.46,90.82c4.13,14.18.54,47.16,13,64.74,16.87,23.85,37.38,1.41,40.76,8s-37.1,20.46-51.67-4.85S217.46,90.82,217.46,90.82Z"/>
    <rect class="cls-9" x="322.85" y="120.21" width="39.53" height="68.62" rx="5.18"/>
    <g class="cls-10">
      <rect class="cls-11" x="342.86" y="116.48" width="3.26" height="48.24" transform="matrix(0.21, 0.98, -0.98, 0.21, 410.3, -225.61)"/>
      <rect class="cls-11" x="342.86" y="127.32" width="3.26" height="48.24" transform="translate(420.9 -217.03) rotate(77.99)"/>
      <rect class="cls-11" x="342.86" y="138.15" width="3.26" height="48.24" transform="translate(431.5 -208.45) rotate(77.99)"/>
      <rect class="cls-11" x="342.86" y="148.99" width="3.26" height="48.24" transform="translate(442.1 -199.87) rotate(77.99)"/>
      <rect class="cls-11" x="342.86" y="159.82" width="3.26" height="48.24" transform="translate(452.7 -191.29) rotate(77.99)"/>
    </g>
    <rect class="cls-9" x="315.06" y="119.83" width="54.2" height="25.25" rx="2.88"/>
    <rect class="cls-9" x="324.32" y="114.7" width="35.36" height="16.32"/>
    <rect class="cls-9" x="316.93" y="90.35" width="49.6" height="29.31"/>
    <polygon class="cls-9" points="366.53 86.92 316.93 86.92 331.19 57.62 350.06 57.62 366.53 86.92"/>
    <rect class="cls-11" x="330.5" y="88.99" width="9.83" height="30.56"/>
    <polygon class="cls-11" points="334.34 57.59 324.71 86.98 329.9 86.85 337.08 57.61 334.34 57.59"/>
    <polygon class="cls-11" points="345.26 57.63 356.89 87.28 360.08 87.28 346.69 57.56 345.26 57.63"/>
    <rect class="cls-11" x="343.74" y="88.99" width="8.9" height="30.56"/>
    <rect class="cls-9" x="311.93" y="86.57" width="59.59" height="4.25"/>
    <path class="cls-4" d="M390.66,48.94c-6.29-24.64-76.36-21.79-87.09-10s-18.35,154.44,41.89,155.39C400.82,195.26,404.65,103.73,390.66,48.94Z"/>
    <path class="cls-5" d="M387.38,54.61c-5.69-26-79.18-23.82-82.38-9.86s-10.14,87.77,7.11,117.56,31.05,29.13,39.82,26.1c12.92-4.46,32-13.32,38.57-46C397,110.09,391.37,72.86,387.38,54.61Z"/>
    <path class="cls-7" d="M376.38,72.47c-4.11,14.84,2.47,63-9.9,81.42-16.78,25-37.17,1.46-40.54,8.35s36.89,21.42,51.38-5.07S376.38,72.47,376.38,72.47Z"/>
  </g>
</svg>