<svg xmlns="http://www.w3.org/2000/svg" viewBox="0 0 92.08 61.06"><defs><style>.cls-1{fill:#0b62ae;}.cls-2{fill:#ef792b;}</style></defs><g id="Layer_2" data-name="Layer 2"><g id="Layer_1-2" data-name="Layer 1"><g id="_32giAi.tif" data-name="32giAi.tif"><path class="cls-1" d="M69.47,30.16a23.27,23.27,0,0,1-9.22,8,12.48,12.48,0,0,1-9,.79c-4.09-1.14-5.92-4.27-6.36-8.11a20.18,20.18,0,0,1,.29-6A31.5,31.5,0,0,1,47.31,19c.36-.11.42-.47.57-.73,4.86-8.42,12.18-13.9,21-17.63.6-.25,1.23-.42,1.85-.63H73c.88.48,1.93.7,2.31,1.85a3.81,3.81,0,0,1-.44,2.9A19.54,19.54,0,0,1,72.41,8.2h-1c.4-.46.8-.91,1.19-1.37a9.91,9.91,0,0,0,2-3.1c.58-1.72-.25-2.93-2-3a4.61,4.61,0,0,0-2,.48,44.75,44.75,0,0,0-10.7,7.2A56.56,56.56,0,0,0,50.4,19.83a44,44,0,0,0,14-6.4,40.21,40.21,0,0,0,4.45-3.1,9.05,9.05,0,0,0,1.92-1.68l1,0a28.75,28.75,0,0,1-3,2.72l-4.38,3A50.23,50.23,0,0,1,51.5,20.34,3.2,3.2,0,0,0,49,23a17,17,0,0,0-1.37,7.29c0,.47,0,1,0,1.43a6.77,6.77,0,0,0,6.63,6.65c6.32.13,10.61-3.37,14.22-8l.4-.54a12.86,12.86,0,0,0,2.63-8.43A3.66,3.66,0,0,0,68.81,18l0-.7A4.38,4.38,0,0,1,72,20.67a8.73,8.73,0,0,1,0,3.67,19.05,19.05,0,0,1-2.26,5.48Z"/><path class="cls-1" d="M88.1,61.06c0-.26-.16-.5.32-.61a1.36,1.36,0,0,0,1-2c-.49-1.27-1-2.53-1.5-3.8-.1-.27-.47-.64-.12-.81.5-.24.6.31.73.64.45,1.15.89,2.3,1.38,3.59a25.05,25.05,0,0,0,1.29-3.24c.11-.26.18-.53.3-.79a.36.36,0,0,1,.47-.22c.27.1.13.29.07.46-.76,2-1.52,4-2.25,6-.17.43-.56.55-.87.79Z"/><path class="cls-2" d="M36.71,20.14C35.53,23,34.36,26,33.15,28.85c-.31.75-.28,1.08.65,1a2.2,2.2,0,0,1,1.71.3H25.17c.46-.54,1-.29,1.44-.3s.84-.05.54-.73C26,26.58,25,24,23.88,21.5a.73.73,0,0,0-.81-.49c-1.94,0-3.89,0-5.83,0a.77.77,0,0,0-.83.59c-1,2.5-2,5-3.07,7.48-.28.67,0,.75.54.75a2.93,2.93,0,0,1,1.89.31H10a1.66,1.66,0,0,1,1.5-.3c.82.09,1.18-.26,1.47-1q4.19-10.3,8.44-20.6c.14-.35.13-.82.72-.84s.67.48.83.86c3.09,7.1,6.17,14.2,9.32,21.47.43-1,.8-1.91,1.18-2.8,1-2.29,1.79-4.67,2.92-6.91ZM20.07,12.7c-1.05,2.55-2,4.89-3,7.22-.24.57.08.56.48.56,1.72,0,3.44,0,5.16,0,.55,0,.65-.13.41-.65C22.14,17.55,21.16,15.24,20.07,12.7Z"/><path class="cls-2" d="M71.74,8.67l-1,0c-1.94-.11-1.94-.11-1.92,1.68a40.21,40.21,0,0,1-4.45,3.1,21.06,21.06,0,0,1-.08-3.89c0-.71-.19-.94-.91-.91a3.1,3.1,0,0,1-1.83-.15l0-.29H72.41a18.18,18.18,0,0,1,6.38,1.73A9.44,9.44,0,0,1,84.06,18c.25,3.07-.27,6-2.44,8.36A12.25,12.25,0,0,1,74.3,30a15.05,15.05,0,0,1-4.83.12l.23-.34c4.83.32,8-1.81,9-6.08a22,22,0,0,0-.18-9.92A6.57,6.57,0,0,0,71.74,8.67Z"/><path class="cls-2" d="M47.31,19A31.5,31.5,0,0,0,45.2,24.9c-.81-1-1-2.39-1.69-3.52l-.33-.72-3.37-8-2.74,6.68-.44-.15Q38.92,13.61,41.2,8c.14-.35.26-.61.72-.61s.52.29.65.57Z"/><path class="cls-1" d="M36.63,19.2l.44.15a22.75,22.75,0,0,0,6.11,1.31l.33.72a21.24,21.24,0,0,1-6.8-1.24l-.35-.1a11.11,11.11,0,0,1-4.6-3.11c-2.39-3.08-1.56-7.4,1.86-9.84a18.27,18.27,0,0,1,7.2-2.8,25.73,25.73,0,0,1,12.69.31c.51.15,1.12.22,1.45.85-.61.26-1.08-.09-1.58-.2a26.1,26.1,0,0,0-17.89,1.5,7.69,7.69,0,0,0-3.65,3.37,5.56,5.56,0,0,0,1.64,7.36A11.49,11.49,0,0,0,36.63,19.2Z"/><path class="cls-1" d="M7.31,45.85v-2.2c0-.31.3-.6.42-.37.41.77.68.1,1,0a1.76,1.76,0,0,1,2.11.25c.32.35.42.23.71,0a1.91,1.91,0,0,1,2.13-.28c.78.33.86,1,.86,1.75,0,1,0,1.91,0,2.87,0,.22.13.55-.29.57s-.33-.31-.33-.54c0-.93,0-1.85,0-2.77s-.37-1.48-1.18-1.5-1.4.56-1.42,1.54,0,1.72,0,2.58c0,.26.19.72-.36.68s-.34-.45-.35-.73c0-.89,0-1.78,0-2.67,0-.68-.05-1.31-.93-1.39a1.41,1.41,0,0,0-1.58,1.3C8,45.87,8,46.83,8,47.78c0,.26.12.64-.34.63s-.32-.4-.33-.65C7.3,47.12,7.31,46.49,7.31,45.85Z"/><path class="cls-1" d="M54.84,55.43c0-1,0-2,0-3,0-.28-.07-.62.38-.6a12.22,12.22,0,0,1,3.31.19c.09,0,.19,0,.28.08,1.36.54,2,2.06,1.76,4.14a2.87,2.87,0,0,1-2.5,2.7,22,22,0,0,1-2.56.14c-.57,0-.7-.21-.68-.73C54.87,57.41,54.84,56.42,54.84,55.43Zm1.87-3c-.36.24-1.26-.5-1.25.65v4.77c0,.24,0,.5.27.64.93.41,3.36-.37,3.83-1.25A3.09,3.09,0,0,0,56.71,52.45Z"/><path class="cls-1" d="M10.89,55.68a3.56,3.56,0,0,1,1.73-3.58,3.22,3.22,0,0,1,3.43.14,2.15,2.15,0,0,1,.9,1.08c.07.19.31.48,0,.65s-.49-.09-.65-.36a2.28,2.28,0,0,0-3-1.15,3.21,3.21,0,0,0-1.79,3.36c.3,1.85,1.18,2.77,2.67,2.79A2.21,2.21,0,0,0,16.4,57c.12-.34.16-.8.63-.61s.11.55,0,.84c-.53,1.55-1.73,2.2-3.55,1.94A3.29,3.29,0,0,1,10.89,56,3.18,3.18,0,0,1,10.89,55.68Z"/><path class="cls-1" d="M50.25,48.33c-.61.27-.79,0-1-.53-.64-1.67-.67-1.59-2.45-1.69-1.1-.06-1.75.22-1.94,1.35a5.11,5.11,0,0,1-.28.7c-.12.33-.4.32-.63.24s0-.39,0-.52c.8-2,1.63-4.06,2.44-6.09.13-.3.21-.59.63-.59s.5.28.62.59Q48.95,45.06,50.25,48.33Zm-1.88-2.81L47,41.93l-1.39,3.59Z"/><path class="cls-1" d="M29.32,54.47c1.12-.94,1.76-1,2.91-.13.32.24.35,0,.49-.11A2.1,2.1,0,0,1,35,53.89c.78.3.82,1,.81,1.78,0,.95,0,1.91,0,2.87,0,.23.06.56-.34.53s-.26-.31-.27-.51c0-1,0-2,0-3,0-.74-.28-1.26-1-1.34a1.29,1.29,0,0,0-1.46,1,13.14,13.14,0,0,0-.18,3.13c0,.27.19.75-.32.72s-.25-.45-.25-.71c0-.92,0-1.85,0-2.77,0-.67-.27-1.23-1-1.32a1.35,1.35,0,0,0-1.49.93c-.38,1-.1,2.08-.2,3.12,0,.28.2.76-.29.76s-.3-.48-.31-.75c0-1.28,0-2.55,0-3.83,0-.23-.11-.57.25-.63S29.17,54.25,29.32,54.47Z"/><path class="cls-1" d="M6.72,48.21c0,.32-.24.21-.4.21-.4,0-.35-.38-.49-.61-.32-.53-.23-1.46-.85-1.6a12.31,12.31,0,0,0-2.85-.05c-.26,0-.32.27-.39.48-.15.39-.28.78-.44,1.16s-.25.84-.75.59,0-.58.09-.82c.77-2,1.6-3.93,2.38-5.9a.6.6,0,0,1,.61-.47c.33,0,.45.22.54.45.83,2.08,1.65,4.18,2.47,6.27C6.67,48,6.69,48.1,6.72,48.21ZM4.93,45.53l-1.37-3.6-1.39,3.6Z"/><path class="cls-1" d="M71.85,45.76c0-.7,0-1.4,0-2.1,0-.32.31-.59.41-.37.36.83.61.11.88,0a1.74,1.74,0,0,1,2.18.26c.26.28.39.29.67,0a1.86,1.86,0,0,1,2.11-.36c.84.33.88,1.08.86,1.84s0,1.73,0,2.59c0,.27.21.75-.27.76s-.3-.53-.31-.81c0-.89,0-1.79,0-2.68,0-.68-.22-1.19-1-1.27a1.24,1.24,0,0,0-1.51,1,14.28,14.28,0,0,0-.18,3.13c0,.25.18.67-.28.67s-.28-.42-.29-.66c0-.92,0-1.85,0-2.77,0-.66-.16-1.22-.93-1.33a1.31,1.31,0,0,0-1.56.94,8.42,8.42,0,0,0-.17,2.55c0,.32,0,.64,0,1,0,.16,0,.31-.25.32s-.32-.14-.32-.35C71.85,47.3,71.86,46.53,71.85,45.76Z"/><path class="cls-1" d="M65,43.93V41.62c0-.2,0-.4.29-.4s.31.18.31.38v6.49c0,.16,0,.32-.25.32-.47,0-.21-.46-.38-.65-1.45,1-2.72,1-3.52,0a3.38,3.38,0,0,1,.16-4.13C62.5,42.77,63.74,42.83,65,43.93ZM61.5,45.8c0,1.34.66,2.23,1.68,2.24S65,47.1,65,45.77s-.7-2.14-1.78-2.15S61.5,44.41,61.5,45.8Z"/><path class="cls-1" d="M69,46c-.35,0-.7,0-1,0s-.72-.17-.87.16a1.16,1.16,0,0,0,.22,1.07,1.58,1.58,0,0,0,2.8,0c.18-.26.33-.67.67-.43s0,.56-.17.81a2,2,0,0,1-2.1,1,2,2,0,0,1-1.91-1.33,3.76,3.76,0,0,1,0-2.78,2.31,2.31,0,0,1,2.65-1.36,2.44,2.44,0,0,1,1.73,2.43c0,.34-.11.45-.43.44C70,45.93,69.49,46,69,46Zm-.35-.54h1.23c.29,0,.52-.06.39-.43A1.7,1.7,0,0,0,69,43.66a1.45,1.45,0,0,0-1.64.63c-.19.29-.46.61-.28,1s.56.13.86.16A4.85,4.85,0,0,0,68.64,45.41Z"/><path class="cls-1" d="M59.37,47.63a2.28,2.28,0,0,1-2.3.89,1.49,1.49,0,0,1,0-3,13.31,13.31,0,0,1,1.41-.21c.35,0,.71-.06.78-.52a1,1,0,0,0-.42-1.08,1.69,1.69,0,0,0-2.15.58c-.14.25-.21.62-.58.4s-.09-.45,0-.69a2.24,2.24,0,0,1,2.57-1A1.54,1.54,0,0,1,60,44.71c0,.71,0,1.41,0,2.11,0,.4-.19.87.44,1.11.25.09.17.45-.2.49S59.47,48.26,59.37,47.63Zm-.08-1.25c0-.27.1-.7-.44-.61a16.28,16.28,0,0,0-1.84.4.79.79,0,0,0-.63.75,1,1,0,0,0,.55.93A1.64,1.64,0,0,0,59.29,46.38Z"/><path class="cls-1" d="M34.28,47.73a2.33,2.33,0,0,1-2.32.76,1.48,1.48,0,0,1,0-2.91,8.45,8.45,0,0,1,1.51-.21c.42,0,.76-.15.85-.61a.91.91,0,0,0-.46-1,1.64,1.64,0,0,0-2.14.53c-.14.25-.23.62-.59.44s-.08-.52,0-.74a2.22,2.22,0,0,1,2.58-.93A1.54,1.54,0,0,1,35,44.85c0,.73,0,1.47,0,2.2,0,.25-.09.55.16.71s.62.26.29.58a.6.6,0,0,1-.85-.13A4,4,0,0,1,34.28,47.73Zm-1.71.32a2.1,2.1,0,0,0,1.15-.43A1.43,1.43,0,0,0,34.3,46c-.2-.48-.77-.07-1.18,0a3.72,3.72,0,0,0-.92.17c-.53.19-.94.46-.81,1.07A1.2,1.2,0,0,0,32.57,48.05Z"/><path class="cls-1" d="M15.29,45.78c0-1.78.88-2.76,2.43-2.72a2.33,2.33,0,0,1,2.17,2.41c0,.49-.27.48-.61.48-1,0-1.91,0-2.86,0-.48,0-.6.14-.45.62A1.77,1.77,0,0,0,17.42,48a1.51,1.51,0,0,0,1.64-.89c.15-.31.33-.54.62-.38s0,.5-.08.7a2.14,2.14,0,0,1-2.41,1.09,2.27,2.27,0,0,1-1.89-2.08A5,5,0,0,1,15.29,45.78Zm.62-.37h2.83c.43,0,.57-.12.4-.57a1.55,1.55,0,0,0-1.51-1.22C16.59,43.63,16.14,44.31,15.91,45.41Z"/><path class="cls-1" d="M64,56.66H62.91c-1,0-1.17.21-.65,1.13a1.6,1.6,0,0,0,2.81.13,2.6,2.6,0,0,1,.23-.4.38.38,0,0,1,.52-.06c.18.13,0,.28,0,.41a1.79,1.79,0,0,1-1.51,1.28,2.33,2.33,0,0,1-2.47-.85,3.7,3.7,0,0,1,.06-3.71,2.37,2.37,0,0,1,2.75-.7A2.53,2.53,0,0,1,66,56.23c0,.33-.15.44-.46.43Zm1.32-.61c-.19-1.15-.8-1.83-1.61-1.83s-1.43.69-1.61,1.83Z"/><path class="cls-1" d="M39.11,56.66c-.32,0-.64,0-1,0s-.71-.18-.87.16a1.15,1.15,0,0,0,.24,1.07,1.59,1.59,0,0,0,2.65.13c.1-.12.16-.27.25-.4a.37.37,0,0,1,.56-.17c.2.15,0,.34,0,.51-.38.9-1,1.25-2.25,1.21a2,2,0,0,1-2-1.48,3.74,3.74,0,0,1,0-2.34,2.24,2.24,0,0,1,2.67-1.58A2.29,2.29,0,0,1,41.13,56c0,.55-.13.76-.68.71S39.56,56.66,39.11,56.66ZM39,54.23a1.81,1.81,0,0,0-1.72,1.36c-.06.38.07.51.45.5.6,0,1.2,0,1.79,0,.32,0,.77.21.94-.16s-.16-.72-.35-1A1.7,1.7,0,0,0,39,54.23Z"/><path class="cls-1" d="M67.55,54.47A2.25,2.25,0,0,1,69,53.73c1.34,0,2,.47,2,1.81,0,1,0,2,0,3,0,.25,0,.57-.31.59s-.36-.36-.37-.63c0-.86,0-1.72,0-2.57,0-1.12-.45-1.64-1.29-1.64a1.66,1.66,0,0,0-1.61,1.67c0,.86,0,1.72,0,2.58,0,.22.14.58-.27.59s-.35-.37-.35-.63c0-1.33,0-2.67,0-4,0-.23-.09-.56.29-.59S67.38,54.26,67.55,54.47Z"/><path class="cls-1" d="M37,43.79a2,2,0,0,1,2.05-.71,1.34,1.34,0,0,1,1.25,1,18.32,18.32,0,0,1,.15,4,.29.29,0,0,1-.34.34c-.33,0-.32-.26-.32-.48,0-.92,0-1.84,0-2.77,0-1.09-.4-1.54-1.24-1.56A1.53,1.53,0,0,0,36.9,45.2c0,.89,0,1.79,0,2.68,0,.22.1.55-.32.54s-.3-.35-.3-.57c0-1.34,0-2.68,0-4,0-.23-.12-.54.26-.62S36.81,43.6,37,43.79Z"/><path class="cls-1" d="M2.45,53.76A2.48,2.48,0,0,1,5,56.46a2.5,2.5,0,0,1-2.43,2.72A2.43,2.43,0,0,1,0,56.51,2.43,2.43,0,0,1,2.45,53.76Zm1.79,2.78c0-1.34-.79-2.39-1.83-2.32a2.22,2.22,0,0,0-1.8,2.31,2.16,2.16,0,0,0,1.84,2.18A2,2,0,0,0,4.24,56.54Z"/><path class="cls-1" d="M18.14,56.43c0-1.74.89-2.69,2.48-2.67s2.36,1,2.35,2.79-.87,2.63-2.42,2.63S18.13,58.18,18.14,56.43Zm4.22,0a2,2,0,0,0-1.81-2.24,2.06,2.06,0,0,0-1.81,2.18,2.1,2.1,0,0,0,1.8,2.3A2,2,0,0,0,22.36,56.47Z"/><path class="cls-1" d="M25.51,59.18a1.75,1.75,0,0,1-1.87-1.09c-.09-.23-.29-.49,0-.64s.44.13.56.37a1.51,1.51,0,0,0,2,.76,1,1,0,0,0,.81-.83c0-.48-.32-.75-.74-.87s-1.11-.27-1.64-.45a1.21,1.21,0,0,1-1-1.23,1.32,1.32,0,0,1,1-1.34,2.07,2.07,0,0,1,2.66.81c.08.2.38.47,0,.64s-.45-.06-.59-.32a1.35,1.35,0,0,0-1.86-.61.76.76,0,0,0-.6.76.75.75,0,0,0,.57.7,9.14,9.14,0,0,0,1.36.38c.87.17,1.51.57,1.47,1.55,0,.83-.77,1.37-1.85,1.41Z"/><path class="cls-1" d="M78.45,53.76a1.61,1.61,0,0,1,1.8.93c.07.16.41.46,0,.63s-.44,0-.58-.33a1.31,1.31,0,0,0-1.84-.62.77.77,0,0,0-.61.76.71.71,0,0,0,.55.7c.53.18,1.09.31,1.64.44A1.42,1.42,0,0,1,79.59,59a2.32,2.32,0,0,1-3-.83c-.11-.25-.33-.55,0-.74s.4.17.53.38a1.56,1.56,0,0,0,2.09.72.89.89,0,0,0,.69-.82.82.82,0,0,0-.65-.84c-.39-.12-.8-.18-1.19-.29-1.22-.32-1.56-.7-1.47-1.61S77.31,53.77,78.45,53.76Z"/><path class="cls-1" d="M81.81,47.58c.53-1.47,1-2.65,1.39-3.83.09-.25.15-.65.55-.49s.09.47,0,.69c-.65,1.75-1.3,3.49-2,5.24-.25.65-.59,1.21-1.42,1.16-.19,0-.39,0-.43-.27s.18-.27.37-.32a1.32,1.32,0,0,0,.93-1.94c-.51-1.33-1-2.64-1.56-4-.07-.19-.41-.46,0-.61s.45.09.56.37C80.74,44.85,81.23,46.08,81.81,47.58Z"/><path class="cls-1" d="M51.21,46.18a1.88,1.88,0,0,0,1.09,1.68,1.39,1.39,0,0,0,1.6-.2,1.57,1.57,0,0,0,.52-.78c.08-.25.16-.43.44-.35s.2.37.15.56a2.21,2.21,0,0,1-3.5,1,3.12,3.12,0,0,1-.74-3.56,2.27,2.27,0,0,1,2.52-1.44A1.86,1.86,0,0,1,55,44.27c.07.18.15.39-.07.49a.35.35,0,0,1-.49-.16,1.52,1.52,0,0,0-2.12-.86C51.57,44,51.18,44.88,51.21,46.18Z"/><path class="cls-1" d="M46.44,56.47c0-1.92,1.1-2.94,2.93-2.69a1.63,1.63,0,0,1,1.49,1.27c0,.16.2.39-.12.44s-.38.07-.47-.18a1.39,1.39,0,0,0-1.79-1,1.88,1.88,0,0,0-1.42,1.82A2.21,2.21,0,0,0,48,58.41a1.46,1.46,0,0,0,2.26-.74c.15-.31.3-.54.61-.41s0,.46,0,.64a2,2,0,0,1-2.38,1.26,2.31,2.31,0,0,1-2-2.11A5.61,5.61,0,0,1,46.44,56.47Z"/><path class="cls-1" d="M25.58,46c0-2.06,1.08-3.11,2.82-2.9a1.83,1.83,0,0,1,1.52,1.13c.09.19.22.43-.06.57a.33.33,0,0,1-.47-.19,1.49,1.49,0,0,0-1.95-.89,1.77,1.77,0,0,0-1.22,1.56A2.35,2.35,0,0,0,27,47.66a1.47,1.47,0,0,0,2.36-.6c.13-.27.15-.73.59-.51s.07.55,0,.8a2.06,2.06,0,0,1-2.17,1.2,2.35,2.35,0,0,1-2.11-2A5.15,5.15,0,0,1,25.58,46Z"/><path class="cls-1" d="M6,56.65V55.22c0-.16-.08-.38,0-.47.61-.67-1.67-.1-.4-.89.62-.39.34-.92.57-1.35a1,1,0,0,1,1-.63c.24,0,.64-.19.71.22s-.35.32-.6.35c-.47,0-.5.37-.52.75s0,.68.55.64c.19,0,.4,0,.39.29s-.25.25-.42.23c-.55,0-.52.3-.52.67,0,1.14,0,2.28,0,3.43,0,.26.11.63-.35.63S6,58.73,6,58.46C6,57.85,6,57.25,6,56.65Z"/><path class="cls-1" d="M81.64,56.44V55.1c0-.38.08-.81-.54-.74-.13,0-.28,0-.27-.18s.1-.31.14-.3c.85,0,.67-.57.68-1.05,0-.3,0-.6.42-.57s.3.35.29.57c0,.55-.11,1.13.76,1,.15,0,.22.13.23.26s-.13.28-.31.25c-.79-.13-.67.42-.67.88,0,.8,0,1.59,0,2.39,0,.49-.06,1,.69.95a.25.25,0,0,1,.31.27c0,.26-.17.28-.38.3-.74.06-1.26-.19-1.31-1,0-.57,0-1.14,0-1.71Z"/><path class="cls-1" d="M42.42,56.47c0-.45,0-.89,0-1.34s0-.85-.62-.77c-.17,0-.33,0-.32-.25s.09-.27.22-.25c.83.09.71-.48.72-1,0-.22-.14-.58.26-.59s.32.4.31.64c0,.57,0,1,.77.93a.26.26,0,0,1,.3.29c0,.21-.2.24-.35.22-.74-.12-.73.35-.72.87,0,.79,0,1.59,0,2.39,0,.51,0,1,.73,1,.21,0,.38.07.35.33s-.26.23-.44.24c-.74,0-1.26-.18-1.23-1.06C42.44,57.55,42.42,57,42.42,56.47Z"/><path class="cls-1" d="M72.23,56.54c0-.45,0-.89,0-1.34s.08-.93-.64-.84c-.17,0-.32,0-.3-.26a.24.24,0,0,1,.24-.25c.84.09.68-.5.7-1,0-.22-.13-.56.27-.59s.3.33.3.56c0,.53-.11,1.13.77,1a.25.25,0,0,1,.3.28c0,.22-.19.25-.34.23-.72-.11-.74.32-.73.85,0,.83,0,1.65,0,2.48,0,.49,0,.91.69.88.19,0,.4,0,.39.29s-.28.28-.49.29c-.74,0-1.24-.22-1.18-1.09C72.26,57.56,72.23,57.05,72.23,56.54Z"/><path class="cls-1" d="M85.11,54.6a2.77,2.77,0,0,1,1.35-.79c.18,0,.41-.09.47.17s0,.39-.22.43C85,54.7,85,56,85,57.32c0,.44,0,.89,0,1.34,0,.25-.09.45-.38.42s-.29-.22-.29-.42c0-1.47,0-2.93,0-4.4,0-.2.06-.41.3-.4C85.08,53.89,84.76,54.45,85.11,54.6Z"/><path class="cls-1" d="M21.68,44A2.27,2.27,0,0,1,23,43.17c.22,0,.45-.13.5.21s0,.37-.27.42c-1.41.24-1.71,1.21-1.64,2.45,0,.57,0,1.15,0,1.72,0,.23,0,.47-.33.44S21,48.2,21,48l0-4.39c0-.21.06-.4.32-.36C21.71,43.32,21.46,43.74,21.68,44Z"/><path class="cls-1" d="M75.49,56.47v2.18c0,.24,0,.45-.35.44s-.37-.2-.37-.44V54.28c0-.25.09-.43.38-.44s.34.21.34.45Z"/><path class="cls-1" d="M24.13,45.68c0-.67,0-1.33,0-2,0-.24,0-.45.35-.45s.34.21.33.45V48c0,.23,0,.46-.34.46s-.33-.23-.33-.46C24.12,47.2,24.13,46.44,24.13,45.68Z"/><path class="cls-1" d="M45.68,56.42c0,.7,0,1.4,0,2.11,0,.22.1.57-.32.54s-.27-.29-.27-.5c0-1.41,0-2.81,0-4.21,0-.21,0-.49.29-.5s.31.33.31.56C45.69,55.09,45.68,55.75,45.68,56.42Z"/><path class="cls-1" d="M24.45,42.25c-.37-.06-.32-.35-.32-.59s.06-.47.36-.44.3.34.31.58S24.74,42.24,24.45,42.25Z"/><path class="cls-1" d="M75.49,52.39c0,.25,0,.51-.36.49s-.36-.25-.36-.52,0-.49.38-.49S75.48,52.15,75.49,52.39Z"/><path class="cls-1" d="M45.68,52.34c0,.26,0,.52-.31.5s-.28-.33-.29-.56.05-.43.35-.39S45.62,52.21,45.68,52.34Z"/><path class="cls-2" d="M68.72,11.39c.18,2,0,3.93.06,5.89l0,.7,0,11.76-.4.54H61.56V30a4.07,4.07,0,0,1,2-.14c.59,0,.76-.2.76-.77,0-3.67,0-7.33,0-11,0-.18,0-.37,0-.56a22.89,22.89,0,0,1,.08-3.1Z"/><path class="cls-2" d="M49,23a58.67,58.67,0,0,1,2.58,5.79c.36.85.78,1.2,1.68,1.1a2.86,2.86,0,0,1,1.42.09v.31h-7A17,17,0,0,1,49,23Z"/><path class="cls-1" d="M64.26,17.51c0,.19,0,.38,0,.56a19.07,19.07,0,0,0-7.41,4.27,1.37,1.37,0,0,1-1.45.38C58.05,20.33,60.8,18.33,64.26,17.51Z"/></g></g></g></svg>