<svg fill="#fff" width="70pt" height="70pt" version="1.1" viewBox="0 0 100 100" xmlns="http://www.w3.org/2000/svg"><g><path d="m54.875 48.445c-2.3828-3.2773-6.8711-4.3633-10.418-4.6758-3.1055-0.27344-5.9297-1.9023-7.7188-4.457-2.0469-2.9141-5.2305-6.2578-9.2617-6.6836-4.2773-0.46094-8.4805 1.3711-11.051 4.8203 0 0-4.3672 6.2188-4.0703 12.121 0.14453 2.7148 0.73047 5.3867 1.7383 7.9102 0.46484 1.0742 0.19141 2.3281-0.67969 3.1094-0.87109 0.78125-2.1445 0.92188-3.1641 0.34375-0.53906-0.32031-1.0469-0.68359-1.5234-1.0898-0.37891-0.32422-0.87891-0.46875-1.3711-0.39844-0.49219 0.066407-0.93359 0.34766-1.207 0.76172-2.0469 3.1445-5.8398 10.359-4.7852 19.383h0.003907c0.14453 1.1133 0.96484 2.0234 2.0586 2.2852s2.2383-0.17969 2.8711-1.1094c3.8398-5.5859 10.484-12.961 16.973-9.2109 6.4883 3.7461 3.4258 13.188 0.50781 19.305-0.48828 1.0156-0.29688 2.2227 0.47656 3.043 0.77344 0.81641 1.9727 1.0703 3.0117 0.63672 8.3438-3.5938 12.695-10.488 14.395-13.832h-0.003906c0.22266-0.44531 0.24609-0.96484 0.058594-1.4258s-0.5625-0.82031-1.0312-0.98828c-0.58984-0.20703-1.1602-0.46875-1.707-0.77344-1.0078-0.59375-1.5234-1.7656-1.2812-2.9102 0.24219-1.1445 1.1875-2.0078 2.3516-2.1445 2.6875-0.39062 5.2969-1.2188 7.7188-2.4492 5.2617-2.6953 8.4648-9.5859 8.4648-9.5859 1.6992-3.9531 1.1836-8.5078-1.3555-11.984z"></path><path d="m94.227 58.836c-0.61328 0.11328-1.2383 0.17187-1.8633 0.17969-1.1719-0.007813-2.2031-0.76562-2.5664-1.8789s0.023437-2.332 0.96484-3.0312c2.1328-1.6836 3.9766-3.7031 5.4609-5.9805 3.207-4.9648 2.5352-12.535 2.5352-12.535-0.50391-4.2734-3.2266-7.9609-7.1641-9.6992-3.7031-1.6445-8.1328-0.33984-11.363 1.1602l0.003906-0.003906c-2.8281 1.3164-6.0898 1.3164-8.9141 0-3.2266-1.5-7.6562-2.8047-11.363-1.1602v0.003906c-3.9336 1.7383-6.6562 5.4258-7.1602 9.6992-0.058594 0.83594-0.074219 1.6719-0.046875 2.5078 3.2305 1.168 6.0469 3.25 8.1094 5.9961 2.0312 2.7852 3.2891 6.0586 3.6484 9.4883 0.35938 3.4297-0.19141 6.8906-1.6016 10.039-1.5391 3.1523-3.5586 6.0469-5.9766 8.5859 0.91016 2.6562 2.2227 5.1523 3.8945 7.4062 0.68359 0.89453 1.8477 1.2734 2.9297 0.95312 1.0781-0.32422 1.8438-1.2773 1.9297-2.3984 0.53125-6.7539 2.5977-16.465 10.094-16.465 7.4922 0 9.5586 9.7109 10.094 16.465h-0.003906c0.085937 1.1211 0.85547 2.0742 1.9336 2.3984 1.0781 0.32031 2.2422-0.058594 2.9297-0.95312 5.4258-7.2852 5.75-15.43 5.5469-19.176-0.03125-0.49609-0.26953-0.95703-0.66406-1.2656-0.39062-0.30469-0.89844-0.42969-1.3867-0.33594z"></path><path d="m75.543 11.828c0.44531-0.94141 0.5-2.0156 0.15625-2.9961-0.34766-0.98047-1.0703-1.7812-2.0078-2.2266-1.957-0.93359-4.293-0.10156-5.2227 1.8516l-3.8086 7.9922c2.6992 0.14062 5.3555 0.70703 7.8789 1.6797z"></path><path d="m52.734 20.051c1.1523-0.82812 2.3906-1.5391 3.6875-2.1172 1.1172-0.49219 2.2852-0.86719 3.4805-1.1133l-3.1836-8.9766c-0.72656-2.0352-2.9609-3.0977-5-2.375-2.0352 0.72266-3.1016 2.957-2.3867 4.9922z"></path><path d="m37.223 25.414 8.2617 3.9375v-0.003906c0.97656-2.4648 2.4102-4.7266 4.2188-6.668l-9.1094-4.3398v-0.003906c-0.9375-0.44531-2.0156-0.5-2.9961-0.15234-0.97656 0.34375-1.7773 1.0664-2.2266 2.0078-0.92969 1.9531-0.10156 4.2891 1.8516 5.2227z"></path></g></svg>