<svg fill="#fff" width="100pt" height="100pt" version="1.1" viewBox="0 0 100 100" xmlns="http://www.w3.org/2000/svg"><g><path d="m66.172 38.594c-0.61328-0.27344-1.2383-0.51172-1.8672-0.72266-0.5 0.75-0.98438 1.4844-1.4492 2.2109h-0.003907c0.78125 0.23047 1.543 0.51172 2.2891 0.83984 6.25 2.7734 8.7266 7.0273 9.707 10.109 2.5352 7.9922-1.6602 16.84-4.3867 21.402h-0.003907c-0.27344 0.45703-0.41797 0.98047-0.42578 1.5117-0.25 5.2969-1.0039 10.555-2.25 15.711l-0.007812 0.039062c-0.027344 0.13281-0.058594 0.26953-0.089844 0.41016-0.5625 2.5352-2.6484 4.4492-5.2227 4.793-2.5781 0.34375-5.0938-0.95313-6.3047-3.25l-6.6953-12.688c-0.69531-1.3203-2.0625-2.1406-3.5508-2.1406-1.4883 0-2.8555 0.82422-3.5508 2.1406l-6.6953 12.691v-0.003906c-1.0625 2.0312-3.168 3.3047-5.4609 3.3047-2.918 0.015625-5.4453-2.0078-6.0664-4.8594-0.035157-0.14844-0.066407-0.30078-0.10156-0.46484-1.2422-5.1406-1.9922-10.391-2.2461-15.676-0.003906-0.53516-0.15234-1.0547-0.42578-1.5156-2.7266-4.5664-6.9258-13.422-4.3867-21.414 0.98047-3.082 3.4609-7.3398 9.7188-10.109v0.003907c4.6484-2.0547 9.9102-2.2383 14.691-0.51172 2.9102 1.0547 6.0938 1.0586 9.0078 0.015625 0.082031-0.03125 0.16797-0.054687 0.25391-0.085937 0.60937-1.0156 1.2578-2.0703 1.9453-3.168-1.0352 0.21484-2.0586 0.5-3.0547 0.85547-2.3555 0.84375-4.9336 0.83984-7.2852-0.011719-5.3984-1.9492-11.34-1.7422-16.59 0.57812-7.1211 3.1523-9.9727 8.0859-11.113 11.664-2.8438 8.9414 1.6797 18.555 4.6289 23.492 0.042968 0.070312 0.066406 0.15625 0.066406 0.23828 0.25 5.4531 1.0195 10.871 2.2969 16.18 0.035156 0.16797 0.070312 0.33594 0.10938 0.49609 0.79688 3.5742 3.7383 6.2773 7.3711 6.7617 3.6328 0.48828 7.1836-1.3438 8.8945-4.582l6.6953-12.691c0.25391-0.48047 0.75391-0.78516 1.2969-0.78516 0.54297 0 1.043 0.30078 1.2969 0.78516l6.6953 12.688h0.003906c1.707 3.2422 5.2578 5.0703 8.8867 4.5859 3.6328-0.48438 6.5742-3.1797 7.375-6.7578 0.035156-0.14844 0.066406-0.29687 0.097656-0.4375l0.007813-0.03125h-0.003907c1.2852-5.3203 2.0547-10.754 2.3086-16.219 0-0.085937 0.023437-0.16406 0.066406-0.23828 2.9453-4.9297 7.4648-14.535 4.6289-23.477-1.1367-3.582-3.9844-8.5117-11.102-11.668z"></path><path d="m63.781 43.992c-0.90625-0.40234-1.8477-0.71875-2.8125-0.94531-8.8984 14.309-11.352 22.594-11.438 22.895-0.73438 2.7148-3.5234 4.3242-6.2422 3.5977-2.7148-0.72656-4.332-3.5117-3.6172-6.2305l0.011719-0.046875c0.26172-0.94531 1.8008-6.0977 6.4531-14.945 0.62891-1.1953 1.3438-2.5078 2.1484-3.9336h0.003906c-2.707 0.39453-5.4727 0.11719-8.043-0.82031-3.9648-1.4297-8.332-1.2812-12.191 0.42188-14.469 6.4062-6.707 21.879-3.8086 26.73h-0.003906c0.57812 0.96484 0.89062 2.0703 0.90234 3.1953 0.26562 5.0625 0.99219 10.094 2.1719 15.023 0.03125 0.14453 0.058594 0.28516 0.09375 0.42969 0.25391 1.1641 1.2109 2.0469 2.3906 2.207 1.1797 0.16016 2.3398-0.43359 2.8945-1.4883l6.6953-12.691 0.003906 0.003906c1.2734-2.418 3.7812-3.9336 6.5156-3.9336s5.2422 1.5156 6.5195 3.9336l6.6953 12.688c0.55469 1.0547 1.7148 1.6484 2.8945 1.4883 1.1836-0.16016 2.1367-1.043 2.3906-2.207 0.03125-0.14062 0.0625-0.28516 0.09375-0.42578 1.1836-4.9375 1.9102-9.9688 2.1719-15.035 0.015625-1.125 0.32422-2.2266 0.90234-3.1914 2.8984-4.8516 10.652-20.312-3.7969-26.719z"></path><path d="m70.184 23.082c-19.918 26.055-24.309 41.695-24.348 41.867-0.15234 0.55469-0.65625 0.94141-1.2305 0.94141-0.11328 0-0.22266-0.011719-0.33203-0.042969-0.67969-0.18359-1.0781-0.87891-0.89844-1.5586 0.058594-0.20703 1.4102-5.1641 6.1562-14.191l-0.003906 0.003906c5.4141-10.051 11.664-19.625 18.68-28.629z"></path><path d="m86.352 8.4609c0 1.3633-0.46875 2.6836-1.3281 3.7422l-8.6992 10.625c-0.050781 0.066406-0.10156 0.12891-0.16016 0.1875l-9.2305-7.5156c0.042968-0.058594 0.085937-0.10938 0.125-0.16406l8.6992-10.625c1.5898-1.9609 4.2422-2.7109 6.6211-1.8672 2.3828 0.84375 3.9727 3.0938 3.9727 5.6172z"></path></g></svg>