<?xml version="1.0" encoding="utf-8"?>
<svg xmlns="http://www.w3.org/2000/svg" viewBox="0 0 600 342.64">
  <defs>
    <style>.cls-1{fill:#f492a1;}.cls-2{fill:#e06e84;}.cls-3{fill:#f2d897;}.cls-4{fill:#fff;}.cls-5{fill:#e5c377;}.cls-6{fill:#f4f4f4;}</style>
  </defs>
  <g id="implant_process" data-name="implant process">
    <path class="cls-1" d="M597.09,113c-7.24-27.58-346.74-14.83-564-12.15-14.72.17-23.33,7.7-28.07,18.68-11.1,25.85-.67,70.68,2.28,83.05C13.85,230.33-3,249,23.37,268.46c59.37,43.67,212.75,50.85,357,41.12,143-9.64,166.38-36.27,196.7-54.91s13.56-47.73,15.8-64c1-7,2.39-14.35,3.73-21.92C599.65,151.13,602.18,132.32,597.09,113Z"/>
    <path class="cls-2" d="M597.09,113c-7.24-27.58-346.74-14.83-564-12.15-14.72.17-23.33,7.7-28.07,18.68.07.47.1.73.1.73C2.4,127.57.62,183.92,14.46,188s21.28-10.87,31.19,5.78,40,19.08,63.46,12.89c60.64-16,53.3,16.8,89.58,18.63,27,1.36,42.57-20.17,67.59-21.42s32.47,26.41,60,19.59c41.74-10.36,55.7-3.24,91.42,0,66.33,6,76-26.38,104.43-23.74s51.63-5.1,64.81-17.64a42,42,0,0,0,9.66-13.36C599.65,151.13,602.18,132.32,597.09,113Z"/>
    <path class="cls-3" d="M489,68.23a25.12,25.12,0,0,1,15.87-9.77,157.88,157.88,0,0,1,38.52-2.76c25.3,1.5,30.82,14.25,28.87,52s-1.91,74.49-34.11,76.17-53.5-41.47-57.49-76C478.34,88.16,483.82,75.49,489,68.23Z"/>
    <path class="cls-4" d="M547.52,179.18c-15.82,4.45-30.59-4.16-45.08-28.07s-6.3-20.34-7.66-43.28S493,63.93,513.49,62c33.5-3.11,45.63-4,52.31,12.14s1.09,63.32-2.07,80.64A35.8,35.8,0,0,1,547.52,179.18Z"/>
    <path class="cls-5" d="M395.72,70.83c3.93-5.88,11.22-10.16,19.94-11.77A187,187,0,0,1,454.11,56c26.76.79,37.05,15.63,36,51.06s-6.24,83.92-40.35,84c-46.31.08-55.35-42.77-60.49-75.05C386.59,99.06,391,78,395.72,70.83Z"/>
    <path class="cls-4" d="M458.27,187.16c-18.94,4.42-46.14-5.6-55.4-32.87s-4.8-71.62,1.37-81,33.47-19.13,60.2-13,20.54,50.39,18.18,70.1C480.4,148.93,479,182.32,458.27,187.16Z"/>
    <path class="cls-6" d="M467.47,165.91c-10.38-.27-33.52,7.66-40.14-7s-3.05-70.43-8.7-70-7.65,73.39,3.66,79.64C441.1,178.94,467.47,165.91,467.47,165.91Z"/>
    <path class="cls-3" d="M102.83,68.23A25.14,25.14,0,0,0,87,58.46,157.92,157.92,0,0,0,48.43,55.7c-25.3,1.5-30.82,14.25-28.87,52s1.91,74.49,34.11,76.17,53.51-41.47,57.49-76C113.43,88.16,108,75.49,102.83,68.23Z"/>
    <path class="cls-4" d="M44.26,179.18c15.82,4.45,30.59-4.16,45.08-28.07s6.3-20.34,7.66-43.28S98.77,63.93,78.28,62c-33.5-3.11-45.63-4-52.31,12.14S24.88,137.49,28,154.81A35.83,35.83,0,0,0,44.26,179.18Z"/>
    <path class="cls-5" d="M196.05,70.83c-3.93-5.88-11.22-10.16-19.94-11.77A187,187,0,0,0,137.66,56c-26.76.79-37,15.63-36,51.06s6.24,83.92,40.35,84c46.31.08,55.35-42.77,60.5-75.05C205.18,99.06,200.82,78,196.05,70.83Z"/>
    <path class="cls-4" d="M133.51,187.16c18.93,4.42,46.13-5.6,55.39-32.87s4.8-71.62-1.37-81-33.47-19.13-60.2-13-20.53,50.39-18.18,70.1C111.37,148.93,112.78,182.32,133.51,187.16Z"/>
    <path class="cls-6" d="M124.31,165.91c10.37-.27,33.51,7.66,40.13-7s3.06-70.43,8.7-70,7.65,73.39-3.65,79.64C150.67,178.94,124.31,165.91,124.31,165.91Z"/>
    <path class="cls-3" d="M203.78,68.6c6-20.86,73.13-18.45,83.42-8.44s17.57,130.71-40.13,131.52C194.05,192.42,190.38,115,203.78,68.6Z"/>
    <path class="cls-4" d="M206.92,73.4c5.45-22,75.84-20.16,78.91-8.35s9.71,74.28-6.82,99.49-29.73,24.66-38.14,22.09c-12.37-3.78-30.65-11.28-36.93-38.95C197.73,120.34,203.1,88.84,206.92,73.4Z"/>
    <path class="cls-6" d="M217.45,88.51c3.94,12.56-2.36,53.33,9.49,68.9,16.07,21.12,35.6,1.24,38.82,7.07s-35.33,18.13-49.2-4.29S217.45,88.51,217.45,88.51Z"/>
    <path class="cls-3" d="M388.7,69.6c-6.3-21.15-76.36-18.7-87.1-8.55s-18.35,132.5,41.9,133.32C398.86,195.13,402.69,116.6,388.7,69.6Z"/>
    <path class="cls-4" d="M385.42,74.46C379.73,52.13,306.24,54,303,66s-10.13,75.31,7.12,100.87,31,25,39.82,22.39c12.92-3.83,32-11.43,38.56-39.49C395,122.06,389.41,90.12,385.42,74.46Z"/>
    <path class="cls-6" d="M374.42,89.79c-4.11,12.72,2.47,54.06-9.91,69.85-16.77,21.41-37.16,1.26-40.53,7.17s36.89,18.37,51.38-4.35S374.42,89.79,374.42,89.79Z"/>
  </g>
</svg>